<?xml version="1.0" encoding="UTF-8"?>
<svg version="1.1" xmlns="http://www.w3.org/2000/svg" width="412" height="419">
<path d="M0 0 C2.34723457 -0.00071988 4.69446361 -0.0028713 7.04169679 -0.00549722 C15.27110809 -0.01468581 23.50050341 -0.01883962 31.72991967 -0.01804566 C39.33888794 -0.017444 46.94778554 -0.02803002 54.55673593 -0.04378933 C61.14932151 -0.05694571 67.74188416 -0.06222631 74.33448273 -0.06159025 C78.24604663 -0.06133799 82.15754723 -0.06403728 86.06909776 -0.0747683 C113.31455403 -0.14424786 138.99391172 0.87806255 164.18377709 12.16725707 C165.35682397 12.69190551 166.52987084 13.21655395 167.73846459 13.75710082 C184.55872213 21.71769041 201.81678114 34.28253026 213.18377709 49.16725707 C213.93787866 50.13534301 214.69198022 51.10342895 215.46893334 52.10085082 C233.41105766 75.77883153 242.87991583 103.23864671 242.68548608 132.88185668 C242.68928301 134.56795234 242.69479423 136.25404486 242.70185876 137.94013 C242.71565287 142.46099327 242.70475774 146.98146909 242.68814754 151.50231028 C242.67413713 156.27128877 242.68077518 161.04024836 242.68428063 165.8092401 C242.68697054 173.81365118 242.67361378 181.81791126 242.65032983 189.82228637 C242.62373704 199.02683489 242.62197476 208.23113111 242.63371819 217.43570489 C242.64456405 226.35244007 242.63825528 235.26908555 242.62416291 244.18581367 C242.61846087 247.95205452 242.61843955 251.71822846 242.62322831 255.48447013 C242.62806368 259.93430072 242.61763067 264.38386139 242.59627366 268.83364081 C242.59079325 270.44951125 242.59015781 272.06540812 242.59522653 273.6812799 C242.68389647 306.05117341 233.26034606 336.23716218 212.18377709 361.16725707 C211.48550805 361.99991088 211.48550805 361.99991088 210.77313256 362.84938598 C190.37833117 386.86670982 159.7521798 404.80843968 128.18377709 408.16725707 C123.82569618 408.46189978 119.46757778 408.60819236 115.10174584 408.73756957 C114.10593373 408.76803689 114.10593373 408.76803689 113.09000421 408.79911971 C91.36670008 409.44288008 69.62608945 409.31768686 47.89569116 409.29762816 C41.6930358 409.29194399 35.49042344 409.29531912 29.28776956 409.30105472 C7.31346631 409.3184505 -14.66029135 409.32625207 -36.62872291 408.76491332 C-37.70627467 408.74019391 -37.70627467 408.74019391 -38.80559516 408.71497512 C-76.33187697 407.8154801 -107.0742329 391.87156138 -133.27716041 365.71022582 C-163.24630936 334.00602088 -167.31087285 295.40803366 -167.21919942 253.84099054 C-167.21149926 249.2455224 -167.21867658 244.65007046 -167.22335792 240.05460143 C-167.22878523 232.34464276 -167.22170342 224.63477087 -167.20733619 216.92482543 C-167.19100975 208.06219856 -167.19631045 199.19977883 -167.2128154 190.33715695 C-167.22651024 182.67110959 -167.22831135 175.0051239 -167.2204994 167.33906823 C-167.21586723 162.78525703 -167.21507312 158.2315426 -167.22510886 153.67773795 C-167.30672741 110.84732329 -167.30672741 110.84732329 -161.12872291 92.47975707 C-160.87526099 91.70559447 -160.62179908 90.93143188 -160.3606565 90.1338098 C-148.50796559 55.35430317 -121.88746636 28.57848336 -89.48028541 12.35866332 C-83.09978312 9.28816049 -76.66123781 7.01802478 -69.81622291 5.16725707 C-69.1380149 4.97937621 -68.45980689 4.79149535 -67.76104712 4.59792113 C-59.49757734 2.35781252 -51.36038081 0.91555417 -42.80133033 0.56838012 C-41.47034324 0.51039638 -41.47034324 0.51039638 -40.11246753 0.45124125 C-26.74961985 -0.06307679 -13.37075519 0.00231233 0 0 Z M121.24627709 105.16725707 C120.50571069 105.52948363 119.76514428 105.8917102 119.00213647 106.26491332 C116.38759269 107.549327 113.78549162 108.85704903 111.18377709 110.16725707 C98.35707704 116.60973048 85.48296617 122.95364465 72.59613061 129.27492309 C69.15141111 130.96497271 65.70761183 132.65688708 62.26385522 134.3488977 C48.75696086 140.97945821 35.21316952 147.52644631 21.63009667 153.99937987 C15.97117939 156.70095677 10.32832668 159.4358236 4.68377709 162.16725707 C-4.01584591 166.37306114 -12.72206565 170.56455944 -21.44122291 174.72975707 C-22.34123023 175.16094848 -23.24123755 175.59213988 -24.16851783 176.0363977 C-28.86310034 178.28468303 -33.56271823 180.52130933 -38.2726438 182.73731017 C-40.78064527 183.91902671 -43.28543861 185.107446 -45.78979468 186.29686522 C-47.59417104 187.15090316 -49.40267401 187.99620505 -51.21124244 188.84132934 C-52.3042063 189.36138549 -53.39717017 189.88144164 -54.52325416 190.41725707 C-55.98468848 191.10561645 -55.98468848 191.10561645 -57.47564673 191.80788207 C-60.08563047 193.09370684 -60.08563047 193.09370684 -61.81622291 196.16725707 C-62.38422084 200.25256271 -62.38422084 200.25256271 -61.81622291 204.16725707 C-58.04856594 207.78087773 -54.27475176 209.23705553 -49.31622291 210.49538207 C-48.54850562 210.69931579 -47.78078834 210.9032495 -46.98980689 211.11336303 C-34.66879672 214.32604824 -22.22830124 217.08351433 -9.81622291 219.91725707 C-5.96277098 220.79846255 -2.10977365 221.68162021 1.74261498 222.56746459 C4.12141006 223.11430897 6.50078695 223.65862994 8.88079858 224.20015502 C9.94371118 224.44421081 11.00662377 224.68826659 12.10174584 224.93971801 C13.50589746 225.26018096 13.50589746 225.26018096 14.93841577 225.58711791 C17.18377709 226.16725707 17.18377709 226.16725707 19.18377709 227.16725707 C19.9130672 229.79512344 20.51827022 232.37126931 21.06658959 235.03835082 C21.3294526 236.26428702 21.3294526 236.26428702 21.59762597 237.51498961 C21.97655061 239.28501388 22.35183919 241.05581952 22.72393823 242.82729125 C23.50834909 246.55254702 24.31592275 250.27264578 25.1224978 253.99315429 C25.74211308 256.85205992 26.35923612 259.71149391 26.97576928 262.57106566 C27.37836927 264.43647775 27.78103684 266.30187526 28.18377709 268.16725707 C28.37169824 269.03820006 28.55961938 269.90914306 28.7532351 270.80647826 C29.79327927 275.61441385 30.85200075 280.41747936 31.93957543 285.21489501 C32.26700083 286.67403474 32.58761068 288.13472187 32.90112329 289.59691405 C33.33766866 291.62982185 33.79690247 293.65632251 34.26190209 295.68288207 C34.51359155 296.82015746 34.765281 297.95743285 35.02459741 299.12917113 C36.43070145 302.8144194 38.15072053 304.67675403 41.18377709 307.16725707 C44.68377709 308.0005904 44.68377709 308.0005904 48.18377709 307.16725707 C53.98914554 302.808409 56.18824694 296.26940777 59.05877709 289.79225707 C60.20426137 287.25717099 61.35833316 284.72601629 62.51190209 282.19460082 C62.80936334 281.53915786 63.10682458 280.8837149 63.4132998 280.20841002 C66.75531365 272.86416731 70.2770343 265.60914464 73.80877709 258.35475707 C74.45281193 257.02906721 75.09669247 255.70330237 75.74041772 254.37746215 C76.68255491 252.43715194 77.62478131 250.49688586 78.56756616 248.55689025 C88.20231859 228.72750801 97.58295177 208.77603603 106.9830935 188.83473754 C108.43236644 185.76040816 109.88254963 182.68651119 111.33367944 179.61305785 C123.94826227 152.97763286 123.94826227 152.97763286 136.18377709 126.16725707 C136.53214623 125.39285277 136.88051538 124.61844848 137.23944116 123.82057738 C138.1585515 121.75691455 139.05188861 119.68454848 139.93377709 117.60475707 C140.40299584 116.51034301 140.87221459 115.41592895 141.35565209 114.28835082 C142.35002009 110.54070919 142.05007882 107.92427088 141.18377709 104.16725707 C138.93147655 101.48182181 137.57564093 101.20738472 134.09393334 100.85085082 C129.12656108 101.25280602 125.64566989 102.93647602 121.24627709 105.16725707 Z " fill="#03AF49" transform="translate(169.81622290611267,2.832742929458618)"/>
<path d="M0 0 C-0.4942419 6.24637634 -3.33850098 11.34695084 -6.0625 16.875 C-6.81067993 18.41692017 -6.81067993 18.41692017 -7.57397461 19.98999023 C-10.66072437 26.3335709 -13.8196606 32.63923467 -17.01000977 38.93115234 C-20.2549762 45.39145834 -23.21443176 51.97990981 -26.14868164 58.58618164 C-28.84570091 64.61444687 -31.7366932 70.53182881 -34.7061615 76.42929077 C-37.48174136 81.94621618 -40.20610343 87.48675116 -42.91015625 93.0390625 C-43.33090424 93.9027948 -43.75165222 94.7665271 -44.18515015 95.65643311 C-45.47822266 98.31231964 -46.7704908 100.96859605 -48.0625 103.625 C-53.65053953 115.11286257 -59.25265762 126.59079524 -65 138 C-65.99 138 -66.98 138 -68 138 C-70.40605848 132.0532664 -71.93245892 126.27626403 -73.15625 119.98828125 C-73.54283688 118.07744727 -73.92955964 116.16664079 -74.31640625 114.25585938 C-74.91178567 111.27428396 -75.50402561 108.29212178 -76.09326172 105.30932617 C-76.66871704 102.40896472 -77.2556696 99.51110497 -77.84375 96.61328125 C-78.01571899 95.7236116 -78.18768799 94.83394196 -78.36486816 93.91731262 C-79.61805301 87.49178122 -79.61805301 87.49178122 -83 82 C-85.89618852 80.68416743 -85.89618852 80.68416743 -89.37890625 79.984375 C-90.029767 79.82821716 -90.68062775 79.67205933 -91.35121155 79.51116943 C-93.56318575 78.98676908 -95.78089119 78.49327728 -98 78 C-99.65898684 77.61651019 -101.31766903 77.23170054 -102.97607422 76.84570312 C-108.290122 75.61787173 -113.61313346 74.43212902 -118.9375 73.25 C-120.79628684 72.83491691 -122.65501123 72.41955403 -124.51367188 72.00390625 C-129.00840321 70.99938669 -133.50395526 69.9986238 -138 69 C-138.33 67.68 -138.66 66.36 -139 65 C-130.1551587 60.43284558 -121.17384375 56.20907519 -112.125 52.0625 C-103.02691364 47.88777368 -94.00991642 43.61025351 -85.09228516 39.06445312 C-72.35285881 32.58325139 -59.54047282 26.26792246 -46.62915039 20.13671875 C-39.83556734 16.90195427 -33.09623242 13.56976037 -26.375 10.1875 C-13.83376929 3.89751894 -13.83376929 3.89751894 -8.3125 1.25 C-6.85263672 0.54617187 -6.85263672 0.54617187 -5.36328125 -0.171875 C-3 -1 -3 -1 0 0 Z " fill="#04AE49" transform="translate(284,133)"/>
<path d="M0 0 C4.44573496 1.43358845 7.12769657 3.68267906 10.5 6.875 C13.16190395 9.37988152 15.78655594 11.8297492 18.64453125 14.109375 C40.54982576 31.69173411 52.70165276 63.09829253 57 90 C57.61083963 95.89158628 57.54051107 101.79874337 57.50170898 107.71459961 C57.50550592 109.40069527 57.51101714 111.08678779 57.51808167 112.77287292 C57.53187578 117.2937362 57.52098065 121.81421201 57.50437045 126.33505321 C57.49036004 131.1040317 57.49699808 135.87299129 57.50050354 140.64198303 C57.50319344 148.64639411 57.48983669 156.65065418 57.46655273 164.6550293 C57.43995995 173.85957782 57.43819767 183.06387404 57.4499411 192.26844782 C57.46078696 201.185183 57.45447819 210.10182848 57.44038582 219.01855659 C57.43468378 222.78479745 57.43466246 226.55097139 57.43945122 230.31721306 C57.44428658 234.76704365 57.43385358 239.21660432 57.41249657 243.66638374 C57.40701616 245.28225418 57.40638072 246.89815104 57.41144943 248.51402283 C57.50011938 280.88391634 48.07656896 311.06990511 27 336 C26.30173096 336.83265381 26.30173096 336.83265381 25.58935547 337.68212891 C16.79043151 348.0439168 6.81054956 356.42232161 -4.625 363.6875 C-5.32455811 364.13432129 -6.02411621 364.58114258 -6.74487305 365.04150391 C-8.45662309 366.09550498 -10.22457372 367.05720203 -12 368 C-12.66 367.67 -13.32 367.34 -14 367 C-13.67 366.34 -13.34 365.68 -13 365 C-12.01 365 -11.02 365 -10 365 C-9.67 363.35 -9.34 361.7 -9 360 C-7.35 360.33 -5.7 360.66 -4 361 C-4.495 359.515 -4.495 359.515 -5 358 C-4.34 358 -3.68 358 -3 358 C-3 357.34 -3 356.68 -3 356 C-1.02 356.33 0.96 356.66 3 357 C3 356.34 3 355.68 3 355 C3.66 355 4.32 355 5 355 C5 354.34 5 353.68 5 353 C5.928125 352.5978125 5.928125 352.5978125 6.875 352.1875 C9.2995233 351.04443152 9.2995233 351.04443152 11 348 C11.66 348 12.32 348 13 348 C13 347.01 13 346.02 13 345 C14.57421875 343.38671875 14.57421875 343.38671875 16.6875 341.6875 C19.3662019 339.4591993 21.71585397 337.29871509 23.875 334.5625 C24.57625 333.716875 25.2775 332.87125 26 332 C26.66 332 27.32 332 28 332 C28.144375 330.865625 28.28875 329.73125 28.4375 328.5625 C29 325 29 325 30 324 C30.36628677 322.00577205 30.70131344 320.00546689 31 318 C32.423125 317.5978125 32.423125 317.5978125 33.875 317.1875 C37.25267273 316.25013412 37.25267273 316.25013412 39 313 C39.38499891 311.34450469 39.72793135 309.6777567 40 308 C41.32 307.67 42.64 307.34 44 307 C44.144375 305.96875 44.28875 304.9375 44.4375 303.875 C44.91660457 300.57450187 45.43875083 297.28731659 46 294 C46.66 294 47.32 294 48 294 C47.7525 292.88625 47.7525 292.88625 47.5 291.75 C47 289 47 289 47 285 C48.65 285.33 50.3 285.66 52 286 C51.94779297 284.75863281 51.94779297 284.75863281 51.89453125 283.4921875 C51.74387774 276.84908505 51.97658588 270.56353069 53.08173561 264.0035677 C55.51719881 249.25679481 55.29122519 234.55796011 55.06932116 219.66922402 C55.01773418 215.95100711 54.98576966 212.23261771 54.95175171 208.51420593 C54.88490229 201.49779952 54.80283356 194.48166964 54.71413267 187.46550864 C54.55559162 174.88679216 54.42315506 162.30778606 54.29695547 149.72870797 C54.25220703 145.32942881 54.20063728 140.93030024 54.14308572 136.53117049 C54.11659532 134.45462078 54.09259332 132.37805899 54.06959534 130.3014679 C54.04152317 127.78591791 54.00945785 125.27040753 53.97236633 122.75497437 C53.90984773 116.55721905 54.11261584 110.51854805 54.82802391 104.35914898 C55.09865584 100.64665003 54.46559558 97.24198671 53.6875 93.625 C53.40236417 92.17082364 53.1185256 90.71639235 52.8359375 89.26171875 C52.69381836 88.55063965 52.55169922 87.83956055 52.40527344 87.10693359 C51.78749183 83.89521352 51.29922055 80.67172277 50.8125 77.4375 C50.65394531 76.38433594 50.49539063 75.33117187 50.33203125 74.24609375 C50.16767578 73.13427734 50.16767578 73.13427734 50 72 C49.01 72.33 48.02 72.66 47 73 C47 71.68 47 70.36 47 69 C46.01 68.01 46.01 68.01 45 67 C44.83984375 65.08984375 44.83984375 65.08984375 44.9375 62.9375 C44.958125 61.638125 44.97875 60.33875 45 59 C44.67 58.67 44.34 58.34 44 58 C43.95936168 56.33382885 43.957279 54.66611905 44 53 C43.34 53 42.68 53 42 53 C41.74605469 52.48050781 41.49210937 51.96101563 41.23046875 51.42578125 C39.67426589 48.2725762 38.14010585 45.22016634 36.25 42.25 C35 40 35 40 35 36 C33.68 36 32.36 36 31 36 C30.7525 34.88625 30.505 33.7725 30.25 32.625 C29.44029373 28.95912285 29.44029373 28.95912285 27.0625 27.9375 C26.381875 27.628125 25.70125 27.31875 25 27 C24.525625 26.030625 24.05125 25.06125 23.5625 24.0625 C21.74755446 20.50520675 20.38996251 19.93712144 17 18 C12 12.97275204 12 12.97275204 12 10 C11.34 10 10.68 10 10 10 C9.67 9.34 9.34 8.68 9 8 C8.236875 7.731875 7.47375 7.46375 6.6875 7.1875 C3.39068717 5.73076875 2.02943209 3.93140191 0 1 C0 0.67 0 0.34 0 0 Z " fill="#168247" transform="translate(355,28)"/>
<path d="M0 0 C0.66 0 1.32 0 2 0 C2.92221708 22.44516534 3.07627069 44.87878071 3.02734375 67.33984375 C3.02460639 68.74695455 3.02189676 70.1540654 3.01921463 71.5611763 C2.99482966 83.92962992 2.95904087 96.29804979 2.91250378 108.66643959 C2.88505218 115.96344647 2.86326156 123.26041906 2.85249335 130.55747133 C2.84705374 133.99390485 2.83774551 137.43023172 2.81910515 140.86662102 C2.79995964 144.66234062 2.79300562 148.45790086 2.78881836 152.25366211 C2.77567596 153.93720291 2.77567596 153.93720291 2.76226807 155.65475464 C2.76357224 156.68661392 2.7648764 157.71847321 2.76622009 158.78160095 C2.76307769 159.67415053 2.75993528 160.56670012 2.75669765 161.48629665 C3.02786525 164.28789272 3.93306253 166.41127157 5 169 C4.70400773 170.67370173 4.36817684 172.34068246 4 174 C4.26723542 177.03763784 4.26723542 177.03763784 4.875 180.125 C5.05804687 181.15882813 5.24109375 182.19265625 5.4296875 183.2578125 C5.95969862 186.0731489 5.95969862 186.0731489 7 189 C7.66 189 8.32 189 9 189 C9.33 189.99 9.66 190.98 10 192 C10.53625 192.4125 11.0725 192.825 11.625 193.25 C13 195 13 195 12.625 198.4375 C12.41875 199.613125 12.2125 200.78875 12 202 C12.23769206 204.1182079 12.23769206 204.1182079 13 206 C13.28875 206.845625 13.5775 207.69125 13.875 208.5625 C15.00326026 211.00706389 16.08751293 212.16719989 18 214 C20 217.47368421 20 217.47368421 20 220 C20.66 220.99 21.32 221.98 22 223 C24 226 24 226 24 228 C24.99 228.33 25.98 228.66 27 229 C27.061875 229.721875 27.12375 230.44375 27.1875 231.1875 C28.25992966 234.8997565 30.09757913 236.51221068 33 239 C33.99 239.33 34.98 239.66 36 240 C35.67 240.99 35.34 241.98 35 243 C36.32 243.66 37.64 244.32 39 245 C38.67 246.32 38.34 247.64 38 249 C15.72418153 228.70425428 2.13210879 197.84990053 0 168 C-0.14010371 162.5186129 -0.12665605 157.03902403 -0.11352539 151.55639648 C-0.11324295 149.89991762 -0.11340237 148.24343863 -0.1139679 146.58695984 C-0.11425365 142.1124178 -0.10839289 137.63790281 -0.10139394 133.16336703 C-0.09512336 128.47887228 -0.09455368 123.79437684 -0.09336853 119.10987854 C-0.09026612 110.2490973 -0.08206745 101.38832846 -0.07201904 92.52755266 C-0.06082401 82.43563923 -0.05533892 72.34372519 -0.05032361 62.25180709 C-0.0398839 41.50119782 -0.02230562 20.75059969 0 0 Z " fill="#21A85F" transform="translate(3,124)"/>
<path d="M0 0 C2.34723457 -0.00071988 4.69446361 -0.0028713 7.04169679 -0.00549722 C15.27110809 -0.01468581 23.50050341 -0.01883962 31.72991967 -0.01804566 C39.33888794 -0.017444 46.94778554 -0.02803002 54.55673593 -0.04378933 C61.14932151 -0.05694571 67.74188416 -0.06222631 74.33448273 -0.06159025 C78.24604663 -0.06133799 82.15754723 -0.06403728 86.06909776 -0.0747683 C125.58808205 -0.17572994 125.58808205 -0.17572994 141.30877709 4.29225707 C141.99069116 4.47401488 142.67260522 4.6557727 143.37518334 4.84303832 C144.98120429 5.27281857 146.58309019 5.71801797 148.18377709 6.16725707 C148.18377709 6.49725707 148.18377709 6.82725707 148.18377709 7.16725707 C142.55353087 7.37853016 137.47332811 6.78096954 131.93901372 5.76599956 C115.61830057 2.8167832 99.5465297 2.61892993 83.03826141 2.72874975 C79.14365539 2.75048539 75.24904262 2.74946769 71.35438561 2.75143981 C64.84552214 2.75781898 58.33685138 2.77882461 51.8280642 2.81056762 C43.48230417 2.85121691 35.13666748 2.86832141 26.79082036 2.877877 C19.57107553 2.88617166 12.35135646 2.90337763 5.13163424 2.92291451 C3.59057598 2.92695617 2.0495169 2.93069684 0.50845718 2.93413687 C-3.86683756 2.94392415 -8.24205889 2.95843423 -12.61730742 2.98097587 C-14.56867121 2.98999012 -16.52005508 2.99426844 -18.47143531 2.99840331 C-19.63554435 3.00555861 -20.79965339 3.01271392 -21.99903846 3.02008605 C-23.00781704 3.02435953 -24.01659562 3.02863301 -25.05594325 3.03303599 C-27.74346881 3.16371934 -30.18922431 3.61124741 -32.81622291 4.16725707 C-34.8583072 4.16172297 -36.90046373 4.11601945 -38.94122291 4.04225707 C-50.70995689 3.95554008 -62.87040121 5.73969416 -74.00372291 9.61647582 C-75.81622291 10.16725707 -75.81622291 10.16725707 -78.81622291 10.16725707 C-78.81622291 9.50725707 -78.81622291 8.84725707 -78.81622291 8.16725707 C-75.44281196 7.18255905 -72.06723508 6.20549604 -68.69122291 5.22975707 C-67.73989478 4.9519641 -66.78856666 4.67417113 -65.80841041 4.3879602 C-64.88028541 4.12047973 -63.95216041 3.85299926 -62.99591041 3.57741332 C-62.14754615 3.33128295 -61.29918189 3.08515258 -60.42510962 2.83156371 C-41.19362999 -2.06539082 -19.71686813 0.00340982 0 0 Z " fill="#20884F" transform="translate(169.81622290611267,2.832742929458618)"/>
<path d="M0 0 C0.33 0 0.66 0 1 0 C2.02188451 33.79788404 -6.90427573 64.86441296 -29 91 C-29.4655127 91.55510254 -29.93102539 92.11020508 -30.41064453 92.68212891 C-39.20956849 103.0439168 -49.18945044 111.42232161 -60.625 118.6875 C-61.67433716 119.35773193 -61.67433716 119.35773193 -62.74487305 120.04150391 C-64.45662309 121.09550498 -66.22457372 122.05720203 -68 123 C-68.66 122.67 -69.32 122.34 -70 122 C-69.505 121.01 -69.505 121.01 -69 120 C-68.01 120 -67.02 120 -66 120 C-65.67 118.35 -65.34 116.7 -65 115 C-63.35 115.33 -61.7 115.66 -60 116 C-60.33 115.01 -60.66 114.02 -61 113 C-60.34 113 -59.68 113 -59 113 C-59 112.34 -59 111.68 -59 111 C-57.02 111.33 -55.04 111.66 -53 112 C-53 111.34 -53 110.68 -53 110 C-52.34 110 -51.68 110 -51 110 C-51 109.34 -51 108.68 -51 108 C-50.071875 107.5978125 -50.071875 107.5978125 -49.125 107.1875 C-46.7004767 106.04443152 -46.7004767 106.04443152 -45 103 C-44.34 103 -43.68 103 -43 103 C-43 102.01 -43 101.02 -43 100 C-41.42578125 98.38671875 -41.42578125 98.38671875 -39.3125 96.6875 C-36.6337981 94.4591993 -34.28414603 92.29871509 -32.125 89.5625 C-31.073125 88.2940625 -31.073125 88.2940625 -30 87 C-29.34 87 -28.68 87 -28 87 C-27.855625 85.865625 -27.71125 84.73125 -27.5625 83.5625 C-27 80 -27 80 -26 79 C-25.63371323 77.00577205 -25.29868656 75.00546689 -25 73 C-23.576875 72.5978125 -23.576875 72.5978125 -22.125 72.1875 C-18.74732727 71.25013412 -18.74732727 71.25013412 -17 68 C-16.61500109 66.34450469 -16.27206865 64.6777567 -16 63 C-14.02 62.505 -14.02 62.505 -12 62 C-11.855625 60.96875 -11.71125 59.9375 -11.5625 58.875 C-11.08339543 55.57450187 -10.56124917 52.28731659 -10 49 C-9.34 49 -8.68 49 -8 49 C-8.2475 47.88625 -8.2475 47.88625 -8.5 46.75 C-9 44 -9 44 -9 40 C-7.35 40.33 -5.7 40.66 -4 41 C-4.04640625 40.21882813 -4.0928125 39.43765625 -4.140625 38.6328125 C-4.5487883 25.54243223 -2.19904076 12.86818996 0 0 Z " fill="#108E44" transform="translate(411,273)"/>
<path d="M0 0 C3.39973425 4.46906498 2.34476809 10.01051706 1.80078125 15.3671875 C1.07469167 18.31316877 0.1111364 20.59528237 -1.19921875 23.3671875 C-1.48796875 24.0478125 -1.77671875 24.7284375 -2.07421875 25.4296875 C-3.89303012 28.56208487 -6.05383878 31.45209106 -8.19921875 34.3671875 C-9.68421875 33.8721875 -9.68421875 33.8721875 -11.19921875 33.3671875 C-10.64492188 32.20960938 -10.090625 31.05203125 -9.51953125 29.859375 C-8.78757911 28.32039872 -8.05581839 26.78133138 -7.32421875 25.2421875 C-6.95941406 24.48164063 -6.59460938 23.72109375 -6.21875 22.9375 C-1.67052262 13.5701925 -1.67052262 13.5701925 -2.19921875 3.3671875 C-6.00650099 0.82899934 -7.6633782 0.92779225 -12.19921875 1.3671875 C-15.31221056 2.44389418 -18.2018905 3.87903685 -21.13671875 5.3671875 C-21.87728516 5.72941406 -22.61785156 6.09164062 -23.38085938 6.46484375 C-25.99540079 7.74925627 -28.59746873 9.05705673 -31.19921875 10.3671875 C-44.37855661 16.98269437 -57.59714511 23.51754228 -70.83056641 30.02416992 C-73.26550825 31.22165122 -75.69934759 32.42133379 -78.13232422 33.62280273 C-81.67853002 35.37397689 -85.22781231 37.11885705 -88.77734375 38.86328125 C-89.86581604 39.40174179 -90.95428833 39.94020233 -92.07574463 40.49497986 C-93.08489929 40.98962234 -94.09405396 41.48426483 -95.13378906 41.99389648 C-96.01818665 42.42943344 -96.90258423 42.8649704 -97.81378174 43.31370544 C-99.94869836 44.25655002 -101.92096466 44.89125369 -104.19921875 45.3671875 C-104.19921875 44.3771875 -104.19921875 43.3871875 -104.19921875 42.3671875 C-102.74384307 41.52869946 -101.28481502 40.69654816 -99.82421875 39.8671875 C-99.01210937 39.403125 -98.2 38.9390625 -97.36328125 38.4609375 C-95.19921875 37.3671875 -95.19921875 37.3671875 -93.19921875 37.3671875 C-92.86921875 36.7071875 -92.53921875 36.0471875 -92.19921875 35.3671875 C-90.54921875 35.3671875 -88.89921875 35.3671875 -87.19921875 35.3671875 C-86.86921875 34.7071875 -86.53921875 34.0471875 -86.19921875 33.3671875 C-85.20921875 33.3671875 -84.21921875 33.3671875 -83.19921875 33.3671875 C-83.19921875 32.7071875 -83.19921875 32.0471875 -83.19921875 31.3671875 C-79.8323796 28.93558145 -78.46571511 28.3671875 -74.19921875 28.3671875 C-73.86921875 27.3771875 -73.53921875 26.3871875 -73.19921875 25.3671875 C-72.47734375 25.2434375 -71.75546875 25.1196875 -71.01171875 24.9921875 C-67.08375096 24.11930577 -64.07288635 23.2408551 -61.19921875 20.3671875 C-59.25390625 19.734375 -59.25390625 19.734375 -57.07421875 19.2421875 C-55.15609375 18.8090625 -55.15609375 18.8090625 -53.19921875 18.3671875 C-53.19921875 17.7071875 -53.19921875 17.0471875 -53.19921875 16.3671875 C-47.19921875 14.3671875 -47.19921875 14.3671875 -44.8671875 13.671875 C-44.06925781 13.42695312 -43.27132812 13.18203125 -42.44921875 12.9296875 C-41.31226563 12.59130859 -41.31226563 12.59130859 -40.15234375 12.24609375 C-37.84922872 11.41759891 -37.84922872 11.41759891 -36.19921875 8.3671875 C-32.56548459 6.58594527 -29.30844864 5.39583796 -25.38671875 4.3671875 C-21.93469423 3.65057574 -21.93469423 3.65057574 -20.19921875 0.3671875 C-14.49243856 -1.61639595 -5.11196479 -3.79538416 0 0 Z " fill="#1A934F" transform="translate(312.19921875,103.6328125)"/>
<path d="M0 0 C0.93126709 0.60142822 1.86253418 1.20285645 2.82202148 1.82250977 C7.57505144 4.52810583 12.55164342 5.62824516 17.84765625 6.83984375 C19.41923744 7.21309532 19.41923744 7.21309532 21.02256775 7.59388733 C24.36686892 8.38545322 27.71452949 9.16161805 31.0625 9.9375 C33.25348953 10.45408531 35.44424714 10.97165531 37.63476562 11.49023438 C46.21969329 13.51565198 54.8075196 15.52325206 63.42138672 17.42236328 C64.43502792 17.64726944 65.44866913 17.8721756 66.49302673 18.10389709 C68.40532196 18.52660788 70.31881952 18.94392793 72.23365784 19.35496521 C73.08266159 19.54277054 73.93166534 19.73057587 74.80639648 19.92407227 C75.91772194 20.16469139 75.91772194 20.16469139 77.05149841 20.41017151 C79 21 79 21 82 23 C82.80711145 25.67887473 83.43287907 28.23527383 83.98046875 30.96875 C84.15434113 31.78467117 84.3282135 32.60059235 84.50735474 33.4412384 C84.88206083 35.20497846 85.25136121 36.96987368 85.61587524 38.73574829 C86.3838923 42.44971002 87.18172606 46.15705521 87.97789001 49.86506653 C88.58924596 52.71463972 89.19660838 55.5650453 89.80371094 58.41552734 C91.42183327 65.9890797 93.07955661 73.55278482 94.8097229 81.1015625 C95.14324393 82.56820478 95.47108564 84.03615084 95.7930603 85.50537109 C96.24032023 87.54471516 96.70567026 89.57910209 97.17578125 91.61328125 C97.43270752 92.75579346 97.68963379 93.89830566 97.9543457 95.07543945 C99.11519833 98.32219492 100.32311227 99.86048246 103 102 C105.35524661 102.47922359 105.35524661 102.47922359 107.75 102.25 C108.54921875 102.21390625 109.3484375 102.1778125 110.171875 102.140625 C110.77515625 102.09421875 111.3784375 102.0478125 112 102 C113.29820132 99.4487522 114.50969107 96.88618474 115.625 94.25 C116.07875 93.1775 116.5325 92.105 117 91 C117.66 91.33 118.32 91.66 119 92 C118.70867187 92.57363281 118.41734375 93.14726562 118.1171875 93.73828125 C117.40518547 95.17971194 116.7197113 96.63477146 116.0703125 98.10546875 C115.60238281 99.13607422 115.60238281 99.13607422 115.125 100.1875 C114.81820312 100.88230469 114.51140625 101.57710938 114.1953125 102.29296875 C113 104 113 104 111.1015625 104.734375 C108.06127495 105.11864926 105.05965352 105.05883949 102 105 C102 104.34 102 103.68 102 103 C100.35 102.67 98.7 102.34 97 102 C96.82984375 101.11441406 96.6596875 100.22882813 96.484375 99.31640625 C94.03779347 86.81021024 91.51390893 74.35916168 87.5 62.25 C85.10511041 55.0102974 83.6496879 47.68708631 82.34375 40.18066406 C81.54337565 35.61331045 80.51626198 31.39515587 79 27 C79 26.01 79 25.02 79 24 C77.80503906 23.73445313 76.61007813 23.46890625 75.37890625 23.1953125 C67.5859375 21.46354167 59.79296875 19.73177083 52 18 C52 17.34 52 16.68 52 16 C50.741875 16.04125 49.48375 16.0825 48.1875 16.125 C39.49937617 16.125 30.99685369 14.08492763 22.8203125 11.2421875 C18.16766765 9.628644 13.88227939 8.61028492 9 8 C8.67 7.67 8.34 7.34 8 7 C5.67182036 6.63239269 3.3381615 6.29758419 1 6 C0.67 4.02 0.34 2.04 0 0 Z " fill="#1CA356" transform="translate(108,207)"/>
<path d="M0 0 C-1.21265184 3.77269463 -3.44291006 5.17064472 -6.85546875 6.98828125 C-10.13269032 8.53436574 -13.48184401 9.86821263 -16.86328125 11.16796875 C-19.00545796 11.96431889 -19.00545796 11.96431889 -21 13 C-17.08967675 15.68788698 -13.8720289 16.57235984 -9.1875 17.1875 C-7.44533203 17.42533203 -7.44533203 17.42533203 -5.66796875 17.66796875 C-4.34732422 17.83232422 -4.34732422 17.83232422 -3 18 C-3 18.66 -3 19.32 -3 20 C-2.09378906 20.04898438 -1.18757813 20.09796875 -0.25390625 20.1484375 C6.01394828 20.53313122 11.9627567 21.03937163 18.046875 22.60546875 C20.27085668 23.13300889 20.27085668 23.13300889 23.6875 22.875 C27.97217556 23.03668587 29.80786199 24.17904082 33 27 C34.64854952 31.09516011 35.41357973 35.07599921 36 39.4375 C36.67633353 44.11899616 37.67830464 48.45667219 39 53 C39.32891283 54.93478134 39.63963668 56.8726959 39.9375 58.8125 C40.69588015 63.61557431 41.8079346 68.12688782 43.31640625 72.74609375 C44 75 44 75 44.46484375 77.72265625 C44.72974609 78.84994141 44.72974609 78.84994141 45 80 C45.66 80.33 46.32 80.66 47 81 C47.11214844 80.46890625 47.22429687 79.9378125 47.33984375 79.390625 C48.16858677 76.38949642 49.34759982 73.61591837 50.5625 70.75 C51.01753906 69.67234375 51.47257812 68.5946875 51.94140625 67.484375 C52.29074219 66.66453125 52.64007813 65.8446875 53 65 C53.66 65 54.32 65 55 65 C55 64.01 55 63.02 55 62 C55.66 62 56.32 62 57 62 C57.28875 61.030625 57.5775 60.06125 57.875 59.0625 C59 56 59 56 61 55 C59.03205044 61.18677346 56.35032381 66.89811429 53.5625 72.75 C53.07201172 73.80316406 52.58152344 74.85632813 52.07617188 75.94140625 C51.59857422 76.94558594 51.12097656 77.94976562 50.62890625 78.984375 C49.9803064 80.35674316 49.9803064 80.35674316 49.31860352 81.75683594 C48 84 48 84 45 86 C42.78892037 83.78892037 42.57289593 82.94399159 41.921875 79.9765625 C41.73351074 79.13343506 41.54514648 78.29030762 41.35107422 77.42163086 C41.15271973 76.49874268 40.95436523 75.57585449 40.75 74.625 C40.53746582 73.66924072 40.32493164 72.71348145 40.10595703 71.72875977 C38.8383469 65.99156548 37.63231082 60.24264268 36.4453125 54.48828125 C36.18395508 53.2338623 35.92259766 51.97944336 35.65332031 50.68701172 C35.14130121 48.22039021 34.63780145 45.75198227 34.14355469 43.28173828 C33.90797852 42.14591309 33.67240234 41.01008789 33.4296875 39.83984375 C33.22585449 38.83300537 33.02202148 37.82616699 32.81201172 36.78881836 C31.90432718 33.67141592 31.03534934 31.54343142 29 29 C26.10381148 27.68416743 26.10381148 27.68416743 22.62109375 26.984375 C21.970233 26.82821716 21.31937225 26.67205933 20.64878845 26.51116943 C18.43681425 25.98676908 16.21910881 25.49327728 14 25 C12.34101316 24.61651019 10.68233097 24.23170054 9.02392578 23.84570312 C3.709878 22.61787173 -1.61313346 21.43212902 -6.9375 20.25 C-8.79628684 19.83491691 -10.65501123 19.41955403 -12.51367188 19.00390625 C-17.00840321 17.99938669 -21.50395526 16.9986238 -26 16 C-26.33 14.68 -26.66 13.36 -27 12 C-3.31123919 0 -3.31123919 0 0 0 Z " fill="#229B57" transform="translate(172,186)"/>
<path d="M0 0 C0.99 0.495 0.99 0.495 2 1 C-1.75 4 -1.75 4 -4 4 C-4 4.66 -4 5.32 -4 6 C-4.99 6.66 -5.98 7.32 -7 8 C-7.72382467 10.05925139 -7.72382467 10.05925139 -8 12 C-8.66 11.67 -9.32 11.34 -10 11 C-13.18490007 10.7226499 -13.18490007 10.7226499 -16 13 C-16.72965366 15.56282742 -16.72965366 15.56282742 -17 18 C-18.62451419 18.33569297 -20.24962917 18.6684796 -21.875 19 C-22.77992187 19.185625 -23.68484375 19.37125 -24.6171875 19.5625 C-27 20 -27 20 -29 20 C-31.27410477 22.15748401 -33.43318957 24.38784474 -35.5625 26.6875 C-37.23456517 28.2141682 -38.94228223 29.07757479 -41 30 C-41 30.99 -41 31.98 -41 33 C-41 33.66 -41 34.32 -41 35 C-42.32 34.67 -43.64 34.34 -45 34 C-45.33 34.66 -45.66 35.32 -46 36 C-46.99 36.66 -47.98 37.32 -49 38 C-49.73343428 41.06556598 -49.73343428 41.06556598 -50 44 C-50.99 44 -51.98 44 -53 44 C-55.26842072 46.35011758 -55.26842072 46.35011758 -57.5 49.3125 C-59.89603858 52.3674492 -62.24545549 55.26983199 -65 58 C-66.03357147 59.64605826 -67.04060332 61.30963442 -68 63 C-68.495 61.515 -68.495 61.515 -69 60 C-67.86310991 57.75379937 -66.70007117 55.77242635 -65.3125 53.6875 C-64.90749268 53.07156982 -64.50248535 52.45563965 -64.08520508 51.82104492 C-49.00838439 29.45714157 -25.95523466 8.65174489 0 0 Z " fill="#0CB859" transform="translate(88,12)"/>
<path d="M0 0 C0.66 0 1.32 0 2 0 C1.04904245 6.77557255 -1.4542248 12.05228767 -4.74609375 17.96337891 C-8.68256704 25.08575699 -11.84830268 32.5048698 -15 40 C-15.66 40 -16.32 40 -17 40 C-17.13148438 40.56976563 -17.26296875 41.13953125 -17.3984375 41.7265625 C-19.3443237 49.08049607 -22.87296451 55.87989684 -26.2980957 62.63232422 C-30.25851711 70.44858765 -33.85275862 78.42551614 -37.421875 86.42578125 C-37.85653076 87.39451172 -38.29118652 88.36324219 -38.73901367 89.36132812 C-39.60104622 91.28352872 -40.45823208 93.20791257 -41.30981445 95.13476562 C-43.53723533 100.0946492 -45.95164148 104.68882389 -48.91333008 109.24682617 C-50.34916076 111.56331688 -51.35703331 113.95208884 -52.3125 116.5 C-52.63863281 117.3559375 -52.96476563 118.211875 -53.30078125 119.09375 C-53.53152344 119.7228125 -53.76226562 120.351875 -54 121 C-54.66 120.67 -55.32 120.34 -56 120 C-54.5729236 115.36455718 -52.69298251 111.07707153 -50.54296875 106.7421875 C-50.20405609 106.0505098 -49.86514343 105.35883209 -49.51596069 104.64619446 C-48.78840233 103.16147153 -48.05933236 101.67748854 -47.32888794 100.19418335 C-45.3788224 96.23184998 -43.44264282 92.26275924 -41.5078125 88.29296875 C-41.11890335 87.49512466 -40.7299942 86.69728058 -40.32929993 85.8752594 C-36.99304861 79.01580274 -33.75418596 72.11555466 -30.5625 65.1875 C-24.5588199 52.15575585 -18.42413334 39.18851474 -12.26586914 26.22924805 C-8.12423942 17.50986912 -4.0192173 8.77669778 0 0 Z " fill="#209D57" transform="translate(300,140)"/>
<path d="M0 0 C-0.5608852 4.27414199 -1.57572606 7.69832057 -3.43359375 11.58203125 C-4.1596582 13.10280273 -4.1596582 13.10280273 -4.90039062 14.65429688 C-5.40763672 15.69650391 -5.91488281 16.73871094 -6.4375 17.8125 C-6.94087891 18.87404297 -7.44425781 19.93558594 -7.96289062 21.02929688 C-11.7403603 28.87018015 -11.7403603 28.87018015 -14 30 C-13.25068567 22.63174245 -11.23100528 17.32655391 -7.875 10.6875 C-7.33617187 9.61886719 -6.79734375 8.55023438 -6.2421875 7.44921875 C-5.83226562 6.64097656 -5.42234375 5.83273438 -5 5 C-8.72614153 6.11854586 -8.72614153 6.11854586 -11 9 C-13.64 9 -16.28 9 -19 9 C-19 9.66 -19 10.32 -19 11 C-20.051875 11.350625 -21.10375 11.70125 -22.1875 12.0625 C-27.44352601 13.99942551 -32.19594664 16.7981543 -37.046875 19.57421875 C-40 21 -40 21 -44 21 C-44.33 21.99 -44.66 22.98 -45 24 C-46.31956048 24.38425125 -47.65733414 24.70650849 -49 25 C-50.79141943 25.94097529 -52.5609567 26.92423096 -54.3125 27.9375 C-58.5326892 30.29650657 -62.29203311 31.95378513 -67 33 C-67.66 32.34 -68.32 31.68 -69 31 C-67.48519594 30.26373319 -65.97038567 29.52747915 -64.45555115 28.79127502 C-63.08098269 28.12322797 -61.70644145 27.45512493 -60.33192444 26.78697205 C-56.45276902 24.90161234 -52.57279584 23.01796334 -48.69140625 21.13720703 C-41.48073517 17.64198626 -34.27264023 14.14281497 -27.09034729 10.58955383 C-24.23953405 9.17995239 -21.38524899 7.7774711 -18.5305481 6.37576294 C-17.17859526 5.70944812 -15.82838202 5.03959179 -14.47994995 4.36618042 C-12.60548173 3.43047348 -10.72546836 2.50695554 -8.84375 1.5859375 C-7.78349609 1.0604834 -6.72324219 0.5350293 -5.63085938 -0.00634766 C-3 -1 -3 -1 0 0 Z " fill="#21A25A" transform="translate(284,133)"/>
<path d="M0 0 C0.33 0 0.66 0 1 0 C1.82065047 3.59028393 2.12731311 6.90578657 2.13371277 10.58558655 C2.13797775 11.69734756 2.14224274 12.80910858 2.14663696 13.95455933 C2.14595718 15.76961472 2.14595718 15.76961472 2.14526367 17.62133789 C2.14862228 18.90311417 2.1519809 20.18489044 2.15544128 21.50550842 C2.16425781 25.01363829 2.16661833 28.52174375 2.16725707 32.02988362 C2.16796858 34.222144 2.17010476 36.41439819 2.17275429 38.60665703 C2.18199795 46.25576038 2.18609015 53.90484633 2.18530273 61.55395508 C2.18470129 68.68344665 2.19526866 75.81286273 2.2110464 82.94233519 C2.22411626 89.06644295 2.22948691 95.19052601 2.22884732 101.31464761 C2.22859229 104.9711402 2.23144661 108.62756558 2.24202538 112.28404427 C2.2534934 116.35876779 2.24896298 120.43332148 2.24291992 124.50805664 C2.24853943 125.7201178 2.25415894 126.93217896 2.25994873 128.18096924 C2.253657 129.84438103 2.253657 129.84438103 2.24723816 131.54139709 C2.24778293 132.50462922 2.24832769 133.46786135 2.24888897 134.46028233 C1.99042699 137.09768512 1.34270523 138.73771272 0 141 C-0.15396767 123.3542045 -0.30199903 105.70837055 -0.4429636 88.06246662 C-0.50855426 79.86917337 -0.57608735 71.67590473 -0.64819336 63.48266602 C-0.71103596 56.34144732 -0.77023389 49.20020931 -0.82505554 42.05892438 C-0.85421033 38.27768579 -0.88518993 34.49648201 -0.92053413 30.71529579 C-0.95375039 27.1556005 -0.98208947 23.59589954 -1.00670624 20.03613472 C-1.02130197 18.10833962 -1.04105285 16.18058571 -1.06095886 14.25283813 C-1.06799835 13.10163986 -1.07503784 11.95044159 -1.08229065 10.76435852 C-1.09058679 9.76605672 -1.09888292 8.76775492 -1.10743046 7.73920155 C-1.00212493 5.05418033 -0.60453136 2.61395287 0 0 Z " fill="#159F4E" transform="translate(410,136)"/>
<path d="M0 0 C4.68773278 -0.31961814 6.35709338 0.21424788 10 3 C12.64644559 3.84297977 15.27999664 4.41066594 18 5 C18 5.66 18 6.32 18 7 C18.99 6.67 19.98 6.34 21 6 C21 6.66 21 7.32 21 8 C22.258125 8.165 23.51625 8.33 24.8125 8.5 C25.52019531 8.5928125 26.22789063 8.685625 26.95703125 8.78125 C29.15471706 9.053233 29.15471706 9.053233 32 9 C32.92167969 9.30808594 33.84335938 9.61617188 34.79296875 9.93359375 C48.32320883 14.43268698 63.90201972 13.58835571 78 14 C78.495 14.99 78.495 14.99 79 16 C50.41037076 16.6691847 25.67052049 14.94600392 0 1 C0 0.67 0 0.34 0 0 Z " fill="#1B9E53" transform="translate(72,395)"/>
<path d="M0 0 C1.26392578 -0.00459229 2.52785156 -0.00918457 3.83007812 -0.01391602 C10.72035919 -0.00249314 17.47469211 0.2547876 24.3125 1.125 C24.3125 1.455 24.3125 1.785 24.3125 2.125 C14.59219845 3.06839148 4.98072211 3.20749897 -4.77758789 3.08789062 C-5.72883545 3.07951172 -6.68008301 3.07113281 -7.66015625 3.0625 C-8.50843994 3.05089844 -9.35672363 3.03929687 -10.23071289 3.02734375 C-12.81046457 3.12988779 -15.16459577 3.59652042 -17.6875 4.125 C-19.72958429 4.1194659 -21.77174083 4.07376238 -23.8125 4 C-35.58123399 3.91328301 -47.7416783 5.69743709 -58.875 9.57421875 C-60.6875 10.125 -60.6875 10.125 -63.6875 10.125 C-63.6875 9.465 -63.6875 8.805 -63.6875 8.125 C-60.31408906 7.14030197 -56.93851218 6.16323897 -53.5625 5.1875 C-52.61117187 4.90970703 -51.65984375 4.63191406 -50.6796875 4.34570312 C-42.96103821 2.12123128 -35.69696493 0.93834242 -27.6875 0.5625 C-26.79828857 0.5207666 -25.90907715 0.4790332 -24.99291992 0.43603516 C-16.6635087 0.09094244 -8.33543431 0.016863 0 0 Z " fill="#1C9B56" transform="translate(154.6875,2.875)"/>
<path d="M0 0 C1.37102178 4.11306535 0.10890799 5.42245941 -1.796875 9.265625 C-2.10138077 9.88702362 -2.40588654 10.50842224 -2.71961975 11.14865112 C-3.72080703 13.18697701 -4.73545295 15.21829559 -5.75 17.25 C-6.44598602 18.66206565 -7.14088409 20.07466803 -7.8347168 21.48779297 C-9.23094558 24.3299961 -10.63127627 27.17011646 -12.03466797 30.00878906 C-14.67467679 35.35823452 -17.24847451 40.73880032 -19.8125 46.125 C-20.2444165 47.02968018 -20.67633301 47.93436035 -21.12133789 48.86645508 C-22.41542258 51.57706759 -23.70794626 54.28841887 -25 57 C-25.7110791 58.49200928 -25.7110791 58.49200928 -26.43652344 60.01416016 C-29.29297406 66.00850861 -32.14754255 72.00375036 -35 78 C-36.31977666 74.04067002 -35.29824534 72.57612353 -33.75 68.75 C-33.28335938 67.595 -32.81671875 66.44 -32.3359375 65.25 C-31.89507812 64.1775 -31.45421875 63.105 -31 62 C-30.70351562 61.21625 -30.40703125 60.4325 -30.1015625 59.625 C-29.375 57.75 -29.375 57.75 -28 55 C-26.515 54.505 -26.515 54.505 -25 54 C-24.07858022 52.17394027 -24.07858022 52.17394027 -23.5 49.9375 C-22.37721866 46.23408511 -21.13816016 42.62946618 -19.74609375 39.01953125 C-19.15277042 37.41351993 -18.61360648 35.78752379 -18.09375 34.15625 C-16.95364765 30.86624037 -15.59277773 27.81425067 -14.0625 24.6875 C-13.55847656 23.63949219 -13.05445313 22.59148437 -12.53515625 21.51171875 C-11 19 -11 19 -8 18 C-8 16.35 -8 14.7 -8 13 C-7.34 13 -6.68 13 -6 13 C-5.67 11.02 -5.34 9.04 -5 7 C-4.01 6.67 -3.02 6.34 -2 6 C-1.855625 5.195625 -1.71125 4.39125 -1.5625 3.5625 C-1 1 -1 1 0 0 Z " fill="#179B4E" transform="translate(269,163)"/>
<path d="M0 0 C2.12508244 3.18762365 2.5020163 5.26512223 3 9 C3.99 9 4.98 9 6 9 C6.17015625 9.59167969 6.3403125 10.18335938 6.515625 10.79296875 C8.01643928 15.68658125 9.55863965 19.11459316 13 23 C15 26.5 15 26.5 15 29 C15.66 29.99 16.32 30.98 17 32 C19 35 19 35 19 37 C20.485 37.495 20.485 37.495 22 38 C22.061875 38.721875 22.12375 39.44375 22.1875 40.1875 C23.25992966 43.8997565 25.09757913 45.51221068 28 48 C29.485 48.495 29.485 48.495 31 49 C30.67 49.99 30.34 50.98 30 52 C31.32 52.66 32.64 53.32 34 54 C33.67 55.32 33.34 56.64 33 58 C17.76604363 44.12017309 5.44185774 23.88648583 0 4 C0 2.68 0 1.36 0 0 Z " fill="#18AF5E" transform="translate(8,315)"/>
<path d="M0 0 C-1.52994792 0.734375 -3.05989583 1.46875 -4.58984375 2.203125 C-5.59072021 2.68362305 -6.59159668 3.16412109 -7.62280273 3.65917969 C-9.84993578 4.72804607 -12.07731595 5.79639767 -14.30493164 6.86425781 C-20.26127472 9.72049144 -26.21300286 12.58539248 -32.15625 15.46875 C-33.29328369 16.01885742 -34.43031738 16.56896484 -35.60180664 17.13574219 C-37.80302344 18.20098741 -40.0027663 19.26928445 -42.20092773 20.34082031 C-43.19552002 20.82131836 -44.1901123 21.30181641 -45.21484375 21.796875 C-46.09261475 22.22323242 -46.97038574 22.64958984 -47.87475586 23.08886719 C-50 24 -50 24 -52 24 C-52.66 27.63 -53.32 31.26 -54 35 C-57.53986194 31.46013806 -57.913626 29.92331793 -58 25 C-56.5 22.625 -56.5 22.625 -54 21 C-52.2984375 20.7834375 -52.2984375 20.7834375 -50.5625 20.5625 C-46.13970942 19.86416465 -44.77438835 18.42718561 -42 15 C-41.67 14.01 -41.34 13.02 -41 12 C-40.278125 12.226875 -39.55625 12.45375 -38.8125 12.6875 C-35.17855807 13.09127133 -34.06143966 11.89517694 -31 10 C-29.95972656 9.88269531 -28.91945312 9.76539063 -27.84765625 9.64453125 C-23.26997648 8.8777118 -19.87614536 7.21833064 -15.8125 5.0625 C-14.76545898 4.52206055 -14.76545898 4.52206055 -13.69726562 3.97070312 C-11.01974811 2.58736154 -8.35999193 1.211723 -5.76171875 -0.31640625 C-3.49202464 -1.19710796 -2.29248961 -0.65833928 0 0 Z " fill="#17A254" transform="translate(162,172)"/>
<path d="M0 0 C0.33 0 0.66 0 1 0 C0 7.42857143 0 7.42857143 -1 11 C-1.66 11 -2.32 11 -3 11 C-2.9278125 11.61488281 -2.855625 12.22976562 -2.78125 12.86328125 C-2.6884375 13.67152344 -2.595625 14.47976562 -2.5 15.3125 C-2.4071875 16.11300781 -2.314375 16.91351563 -2.21875 17.73828125 C-2 20 -2 20 -2 23 C-2.928125 23.8971875 -2.928125 23.8971875 -3.875 24.8125 C-6.42678876 27.43934138 -7.18663144 29.45075539 -8 33 C-7.72359986 35.2875976 -7.72359986 35.2875976 -7 37 C-7.99 37.495 -7.99 37.495 -9 38 C-9.68729254 40.11846285 -9.68729254 40.11846285 -10.125 42.5625 C-10.29257813 43.38878906 -10.46015625 44.21507812 -10.6328125 45.06640625 C-10.75398437 45.70449219 -10.87515625 46.34257813 -11 47 C-13.93789085 42.59316372 -12.85173072 39.06865952 -12 34 C-11.25437214 30.69802727 -10.32055065 27.48062014 -9.3125 24.25 C-9.05065918 23.39180664 -8.78881836 22.53361328 -8.51904297 21.64941406 C-6.18381759 14.19171397 -3.30514776 7.07911081 0 0 Z " fill="#14BB5E" transform="translate(17,75)"/>
<path d="M0 0 C15.39476191 -0.04676932 30.78951849 -0.082013 46.18433475 -0.10362434 C53.33279359 -0.11392663 60.48120822 -0.12796688 67.62963867 -0.15087891 C73.86191238 -0.17084492 80.09415407 -0.18372405 86.32645887 -0.18817699 C89.62487644 -0.19077895 92.92318133 -0.19792975 96.22157478 -0.21146011 C99.90826978 -0.22598161 103.59477514 -0.22797763 107.28149414 -0.22705078 C108.36906509 -0.23424133 109.45663605 -0.24143188 110.5771637 -0.24884033 C116.119334 -0.23376748 120.76638389 0.13580001 126 2 C123.26094655 3.36952673 121.02912668 3.12621361 118 3 C117.01 2.505 117.01 2.505 116 2 C114.45450124 1.89585178 112.90464207 1.85349081 111.35568237 1.84178162 C109.88749557 1.82709839 109.88749557 1.82709839 108.38964844 1.81211853 C107.31215332 1.80636307 106.2346582 1.8006076 105.12451172 1.79467773 C103.99280548 1.78477814 102.86109924 1.77487854 101.69509888 1.76467896 C97.93998331 1.73299404 94.18485508 1.70827889 90.4296875 1.68359375 C87.83179386 1.66303026 85.23390362 1.64203396 82.63601685 1.62062073 C76.4878937 1.57099353 70.33975249 1.52574444 64.19158089 1.48259836 C57.19284589 1.43324031 50.19415806 1.37831688 43.19546866 1.32291877 C28.79702341 1.20907298 14.39853211 1.1022396 0 1 C0 0.67 0 0.34 0 0 Z " fill="#0DA850" transform="translate(165,5)"/>
<path d="M0 0 C2.47461344 3.71192016 3.11823257 7.39127092 4.0234375 11.68359375 C4.40837241 13.43304878 4.79380451 15.18239447 5.1796875 16.93164062 C5.78017558 19.68666223 6.37605859 22.4424751 6.96289062 25.20043945 C7.53252501 27.86452801 8.12044685 30.52406191 8.7109375 33.18359375 C8.88088226 34.00661484 9.05082703 34.82963593 9.22592163 35.67759705 C10.240029 40.1849012 11.10491049 43.13680083 15 46 C17.35524661 46.47922359 17.35524661 46.47922359 19.75 46.25 C20.94882813 46.19585937 20.94882813 46.19585937 22.171875 46.140625 C22.77515625 46.09421875 23.3784375 46.0478125 24 46 C25.29820132 43.4487522 26.50969107 40.88618474 27.625 38.25 C28.305625 36.64125 28.305625 36.64125 29 35 C29.66 35.33 30.32 35.66 31 36 C30.70867187 36.57363281 30.41734375 37.14726562 30.1171875 37.73828125 C29.40518547 39.17971194 28.7197113 40.63477146 28.0703125 42.10546875 C27.75835937 42.79253906 27.44640625 43.47960937 27.125 44.1875 C26.81820312 44.88230469 26.51140625 45.57710938 26.1953125 46.29296875 C25 48 25 48 23.1015625 48.734375 C20.06127495 49.11864926 17.05965352 49.05883949 14 49 C14 48.34 14 47.68 14 47 C12.35 46.67 10.7 46.34 9 46 C8.82984375 45.11441406 8.6596875 44.22882813 8.484375 43.31640625 C7.09969216 36.23832001 5.61395192 29.20254086 3.9375 22.1875 C0 5.67600236 0 5.67600236 0 0 Z " fill="#1C9350" transform="translate(196,263)"/>
<path d="M0 0 C-1.21265184 3.77269463 -3.44291006 5.17064472 -6.85546875 6.98828125 C-10.13269032 8.53436574 -13.48184401 9.86821263 -16.86328125 11.16796875 C-19.00545796 11.96431889 -19.00545796 11.96431889 -21 13 C-17.535 14.98 -17.535 14.98 -14 17 C-17.42943519 18.18771723 -19.37784675 17.80226223 -22.75 16.5625 C-23.54921875 16.27503906 -24.3484375 15.98757812 -25.171875 15.69140625 C-25.77515625 15.46324219 -26.3784375 15.23507813 -27 15 C-26.82983398 13.17480469 -26.82983398 13.17480469 -26 11 C-23.71508789 9.53613281 -23.71508789 9.53613281 -20.72265625 8.203125 C-19.65208984 7.71972656 -18.58152344 7.23632812 -17.47851562 6.73828125 C-16.35123047 6.24714844 -15.22394531 5.75601563 -14.0625 5.25 C-12.93908203 4.74339844 -11.81566406 4.23679688 -10.65820312 3.71484375 C-2.33234712 0 -2.33234712 0 0 0 Z " fill="#1BAA5D" transform="translate(172,186)"/>
<path d="M0 0 C0.9075 0.309375 1.815 0.61875 2.75 0.9375 C5.16563338 1.7272263 7.52780285 2.42949297 10 3 C10.103125 3.639375 10.20625 4.27875 10.3125 4.9375 C10.6528125 5.9584375 10.6528125 5.9584375 11 7 C11.99 7.33 12.98 7.66 14 8 C14 8.66 14 9.32 14 10 C18.94749352 11.95031608 18.94749352 11.95031608 24 11 C24.061875 11.721875 24.12375 12.44375 24.1875 13.1875 C25.24456647 16.84657625 27.20550071 18.49211602 30 21 C29.34 21.33 28.68 21.66 28 22 C25.7930591 20.8303521 23.76778458 19.61868918 21.6875 18.25 C21.07173096 17.84966553 20.45596191 17.44933105 19.8215332 17.03686523 C2.87822106 5.75644212 2.87822106 5.75644212 0 0 Z " fill="#16A955" transform="translate(42,373)"/>
<path d="M0 0 C1.21236328 0.01353516 1.21236328 0.01353516 2.44921875 0.02734375 C3.37154297 0.04474609 3.37154297 0.04474609 4.3125 0.0625 C4.3125 0.7225 4.3125 1.3825 4.3125 2.0625 C-11.24314576 7.08516932 -25.53064394 9.26129033 -41.875 9.125 C-43.44604492 9.11823242 -43.44604492 9.11823242 -45.04882812 9.11132812 C-47.59511536 9.09970124 -50.1412746 9.08336281 -52.6875 9.0625 C-52.6875 8.7325 -52.6875 8.4025 -52.6875 8.0625 C-51.28842407 7.98733154 -51.28842407 7.98733154 -49.86108398 7.91064453 C-46.37369001 7.7194416 -42.88685607 7.52103905 -39.40014648 7.31787109 C-37.8960755 7.23168439 -36.39184092 7.14830219 -34.88745117 7.06787109 C-32.7148322 6.95121074 -30.54301756 6.82420162 -28.37109375 6.6953125 C-27.06712646 6.62199707 -25.76315918 6.54868164 -24.41967773 6.47314453 C-20.65026594 6.05840321 -17.30960981 5.15733176 -13.6875 4.0625 C-10.75 3.9375 -10.75 3.9375 -8.6875 4.0625 C-8.3575 3.0725 -8.0275 2.0825 -7.6875 1.0625 C-4.80538698 0.10179566 -2.98899956 -0.04331883 0 0 Z " fill="#149E4E" transform="translate(320.6875,400.9375)"/>
<path d="M0 0 C0.33 0 0.66 0 1 0 C1.46502585 15.38029949 0.50000324 30.20868501 -4 45 C-4.93418858 41.91292331 -5.03636801 39.41680921 -4.765625 36.2109375 C-4.64840088 34.81016968 -4.64840088 34.81016968 -4.52880859 33.38110352 C-4.43680176 32.38908936 -4.34479492 31.3970752 -4.25 30.375 C-4.15928223 29.35913818 -4.06856445 28.34327637 -3.97509766 27.29663086 C-3.10564268 18.11130605 -1.69754979 9.0649159 0 0 Z " fill="#0D8440" transform="translate(411,273)"/>
<path d="M0 0 C0.33 0 0.66 0 1 0 C1.21967426 3.79437359 0.7514934 6.05031756 -1.0625 9.375 C-3.40588929 13.82074425 -5.58072201 18.31409391 -7.6875 22.875 C-12.45841016 33.18761524 -12.45841016 33.18761524 -15 37 C-15.66 37 -16.32 37 -17 37 C-15.70184528 32.88071576 -14.16590314 29.04263587 -12.28515625 25.15625 C-11.50301758 23.53396484 -11.50301758 23.53396484 -10.70507812 21.87890625 C-10.16302734 20.76386719 -9.62097656 19.64882813 -9.0625 18.5 C-8.52431641 17.38496094 -7.98613281 16.26992188 -7.43164062 15.12109375 C-4.98734402 10.06372051 -2.51913032 5.02058254 0 0 Z " fill="#1EA059" transform="translate(243,261)"/>
<path d="M0 0 C1.49584642 2.37575608 2.1182334 3.46096743 1.50390625 6.26171875 C0.90991776 9.48951666 1.28584403 11.90481873 1.875 15.125 C2.05804688 16.15882813 2.24109375 17.19265625 2.4296875 18.2578125 C2.95969862 21.0731489 2.95969862 21.0731489 4 24 C4.66 24 5.32 24 6 24 C6.33 24.99 6.66 25.98 7 27 C7.53625 27.4125 8.0725 27.825 8.625 28.25 C10 30 10 30 9.6875 33.6875 C9.460625 34.780625 9.23375 35.87375 9 37 C8.67 36.34 8.34 35.68 8 35 C7.01 35 6.02 35 5 35 C1.26932493 23.77175464 -1.58548018 12.90476362 -1 1 C-0.67 0.67 -0.34 0.34 0 0 Z " fill="#16BB62" transform="translate(6,289)"/>
<path d="M0 0 C10.13508134 1.68280596 19.6398862 6.50935503 28.375 11.75 C29.0232373 12.13865234 29.67147461 12.52730469 30.33935547 12.92773438 C34.86312097 15.72624194 34.86312097 15.72624194 36 18 C30.35790218 16.39356937 25.72441091 14.36534616 20.8359375 11.12890625 C18.34885428 9.59961466 15.78952218 8.8309215 13 8 C10.64517702 7.04469656 8.32640745 6.02361928 6 5 C6 4.34 6 3.68 6 3 C5.195625 2.87625 4.39125 2.7525 3.5625 2.625 C2.716875 2.41875 1.87125 2.2125 1 2 C0.67 1.34 0.34 0.68 0 0 Z " fill="#1E8F50" transform="translate(319,10)"/>
<path d="M0 0 C-3.41301968 2.79509927 -7.15478571 4.69553099 -11.1015625 6.609375 C-11.77923676 6.9404425 -12.45691101 7.27151001 -13.15512085 7.61260986 C-14.58116488 8.30729606 -16.00832345 8.99969848 -17.43652344 9.68994141 C-19.6288105 10.75184574 -21.81441813 11.82671964 -24 12.90234375 C-25.38763283 13.57632026 -26.77564094 14.24952481 -28.1640625 14.921875 C-28.81927887 15.24573181 -29.47449524 15.56958862 -30.14956665 15.90325928 C-31.73846967 16.6634866 -33.36684963 17.34016803 -35 18 C-35.66 17.67 -36.32 17.34 -37 17 C-36.505 15.515 -36.505 15.515 -36 14 C-34.35 14 -32.7 14 -31 14 C-31 13.34 -31 12.68 -31 12 C-29.35 12 -27.7 12 -26 12 C-26 11.34 -26 10.68 -26 10 C-24.68 10 -23.36 10 -22 10 C-22 9.34 -22 8.68 -22 8 C-19.14521674 6.09681116 -17.58058692 5.5380901 -14.3125 4.875 C-13.50425781 4.70742187 -12.69601563 4.53984375 -11.86328125 4.3671875 C-11.24839844 4.24601563 -10.63351563 4.12484375 -10 4 C-10 3.34 -10 2.68 -10 2 C-6.5980513 -0.09350689 -3.94727588 -0.17942163 0 0 Z " fill="#1D9A54" transform="translate(199,153)"/>
<path d="M0 0 C7.44556857 11.16835286 9.26969753 24.78482105 9 38 C8.67 38 8.34 38 8 38 C7.32936905 34.06316446 6.66417499 30.12542943 6 26.1875 C5.71382813 24.50817383 5.71382813 24.50817383 5.421875 22.79492188 C5.15117187 21.18520508 5.15117187 21.18520508 4.875 19.54296875 C4.70742188 18.55321045 4.53984375 17.56345215 4.3671875 16.54370117 C4 14 4 14 4 11 C3.01 11.33 2.02 11.66 1 12 C1 10.68 1 9.36 1 8 C0.34 7.34 -0.32 6.68 -1 6 C-0.625 2.875 -0.625 2.875 0 0 Z " fill="#0D9647" transform="translate(401,89)"/>
<path d="M0 0 C1.15242188 0.00902344 2.30484375 0.01804688 3.4921875 0.02734375 C4.36101562 0.03894531 5.22984375 0.05054688 6.125 0.0625 C6.125 0.3925 6.125 0.7225 6.125 1.0625 C5.01382813 1.17207031 3.90265625 1.28164062 2.7578125 1.39453125 C-5.43631909 2.24925838 -13.06479174 3.33427657 -20.875 6.0625 C-22.68453125 6.63447827 -24.49707147 7.19702464 -26.3125 7.75 C-27.11558594 8.00136719 -27.91867188 8.25273437 -28.74609375 8.51171875 C-30.875 9.0625 -30.875 9.0625 -33.875 9.0625 C-33.875 8.4025 -33.875 7.7425 -33.875 7.0625 C-30.50158906 6.07780197 -27.12601218 5.10073897 -23.75 4.125 C-22.79867187 3.84720703 -21.84734375 3.56941406 -20.8671875 3.28320312 C-13.78451083 1.24201506 -7.41261785 -0.07563896 0 0 Z " fill="#2EA765" transform="translate(124.875,3.9375)"/>
<path d="M0 0 C6.67178477 -0.25937824 13.18932303 0.11810652 19.8125 0.875 C20.88745728 0.99270752 20.88745728 0.99270752 21.98413086 1.11279297 C26.20554184 1.62468756 30.01794991 2.51220107 34 4 C34 4.33 34 4.66 34 5 C26.67221591 5.29020927 19.72125004 4.17444506 12.5 3 C11.29601562 2.80921875 10.09203125 2.6184375 8.8515625 2.421875 C5.90012192 1.95339237 2.94970069 1.47929449 0 1 C0 0.67 0 0.34 0 0 Z " fill="#1DA457" transform="translate(284,5)"/>
<path d="M0 0 C0.33 0 0.66 0 1 0 C0 7.42857143 0 7.42857143 -1 11 C-1.66 11 -2.32 11 -3 11 C-3.103125 11.804375 -3.20625 12.60875 -3.3125 13.4375 C-4.45637314 19.36484265 -5.83313222 25.43628767 -10 30 C-8.77325145 19.40412795 -4.47313402 9.60895456 0 0 Z " fill="#29B067" transform="translate(17,75)"/>
<path d="M0 0 C2.12508244 3.18762365 2.5020163 5.26512223 3 9 C3.99 9 4.98 9 6 9 C6.26554688 9.97582031 6.53109375 10.95164062 6.8046875 11.95703125 C7.16117593 13.24226586 7.51796239 14.52741784 7.875 15.8125 C8.22304688 17.07707031 8.57109375 18.34164063 8.9296875 19.64453125 C9.85700295 23.08408713 9.85700295 23.08408713 12 26 C11.67 26.99 11.34 27.98 11 29 C-0 7.83426966 -0 7.83426966 0 0 Z " fill="#22A45E" transform="translate(8,315)"/>
<path d="M0 0 C1.36209177 4.08627532 0.13571138 5.38184262 -1.74609375 9.19921875 C-2.03605728 9.79426712 -2.32602081 10.38931549 -2.62477112 11.00239563 C-3.55313442 12.90211372 -4.49507267 14.79472578 -5.4375 16.6875 C-6.06926502 17.97416509 -6.70013571 19.26126972 -7.33007812 20.54882812 C-8.87637342 23.70438509 -10.43491402 26.85371267 -12 30 C-13 27 -13 27 -12.2578125 25.16796875 C-11.88398438 24.51441406 -11.51015625 23.86085937 -11.125 23.1875 C-9.30354469 19.78954372 -8.38770532 16.87705319 -8 13 C-7.34 13 -6.68 13 -6 13 C-5.67 11.02 -5.34 9.04 -5 7 C-4.01 6.67 -3.02 6.34 -2 6 C-1.855625 5.195625 -1.71125 4.39125 -1.5625 3.5625 C-1 1 -1 1 0 0 Z " fill="#1C9752" transform="translate(269,163)"/>
<path d="M0 0 C0.66 0.33 1.32 0.66 2 1 C1.67 1.598125 1.34 2.19625 1 2.8125 C-0.20787988 5.05386471 -0.20787988 5.05386471 0 8 C0.33 7.34 0.66 6.68 1 6 C2.32 6.33 3.64 6.66 5 7 C5 7.99 5 8.98 5 10 C-2.75 9.25 -2.75 9.25 -5 7 C-6.31747324 6.30251417 -7.64914193 5.63040043 -9 5 C-7.54735962 4.1361871 -6.0876837 3.28419546 -4.625 2.4375 C-3.40683594 1.72400391 -3.40683594 1.72400391 -2.1640625 0.99609375 C-1.44992188 0.66738281 -0.73578125 0.33867187 0 0 Z " fill="#08AF4F" transform="translate(159,194)"/>
<path d="M0 0 C-5.5 4 -5.5 4 -10 4 C-10 4.66 -10 5.32 -10 6 C-10.54269531 6.26554687 -11.08539063 6.53109375 -11.64453125 6.8046875 C-12.35996094 7.15789063 -13.07539062 7.51109375 -13.8125 7.875 C-14.87404297 8.39707031 -14.87404297 8.39707031 -15.95703125 8.9296875 C-18.21246418 10.0656486 -18.21246418 10.0656486 -21 12 C-23.1875 11.625 -23.1875 11.625 -25 11 C-3.362148 -1.681074 -3.362148 -1.681074 0 0 Z " fill="#29AB66" transform="translate(90,13)"/>
<path d="M0 0 C0.33 0.99 0.66 1.98 1 3 C-2.91400096 3.9346868 -6.48285501 4.07370908 -10.5 4 C-17.38133351 3.9418069 -24.15127017 4.36290885 -31 5 C-27.7467835 3.1198251 -24.92916412 2.57103042 -21.2109375 2.1484375 C-20.10492188 2.01953125 -18.99890625 1.890625 -17.859375 1.7578125 C-16.70953125 1.63148437 -15.5596875 1.50515625 -14.375 1.375 C-12.63863281 1.17390625 -12.63863281 1.17390625 -10.8671875 0.96875 C-2.40545281 0 -2.40545281 0 0 0 Z " fill="#1CB45C" transform="translate(141,3)"/>
<path d="M0 0 C4.68773278 -0.31961814 6.35709338 0.21424788 10 3 C12.64644559 3.84297977 15.27999664 4.41066594 18 5 C18 5.99 18 6.98 18 8 C18.66 8.33 19.32 8.66 20 9 C15.63880487 8.32584579 11.77528712 6.80372897 7.75 5.0625 C6.79480469 4.66514648 6.79480469 4.66514648 5.8203125 4.25976562 C1.1229477 2.2458954 1.1229477 2.2458954 0 0 Z " fill="#1AA153" transform="translate(72,395)"/>
<path d="M0 0 C0.47050781 0.40992188 0.94101562 0.81984375 1.42578125 1.2421875 C2.04839844 1.78101563 2.67101562 2.31984375 3.3125 2.875 C4.23482422 3.67550781 4.23482422 3.67550781 5.17578125 4.4921875 C7.32336833 6.26728089 9.50597808 7.75298904 12 9 C11.67 9.99 11.34 10.98 11 12 C12.32 12.66 13.64 13.32 15 14 C14.67 15.32 14.34 16.64 14 18 C8.82100528 13.10435453 3.97831415 7.93724088 0 2 C0 1.34 0 0.68 0 0 Z " fill="#16A759" transform="translate(27,355)"/>
<path d="M0 0 C0.433125 0.53625 0.86625 1.0725 1.3125 1.625 C3.41582891 2.33947643 3.41582891 2.33947643 5.3125 2.625 C4.9825 3.285 4.6525 3.945 4.3125 4.625 C3.6525 4.295 2.9925 3.965 2.3125 3.625 C2.3125 4.285 2.3125 4.945 2.3125 5.625 C-0.9875 4.965 -4.2875 4.305 -7.6875 3.625 C-8.0175 2.305 -8.3475 0.985 -8.6875 -0.375 C-2.1304255 -1.73590226 -2.1304255 -1.73590226 0 0 Z " fill="#049D3E" transform="translate(319.6875,10.375)"/>
<path d="M0 0 C-1.32 1.32 -2.64 2.64 -4 4 C-3.2575 3.9175 -2.515 3.835 -1.75 3.75 C1.78157027 4.07105184 2.76630364 5.35265617 5 8 C0.28596212 7.52060632 -3.66579301 7.03165952 -8 5 C-7.8125 3.125 -7.8125 3.125 -7 1 C-2.66666667 -1.33333333 -2.66666667 -1.33333333 0 0 Z " fill="#32A366" transform="translate(153,196)"/>
<path d="M0 0 C0.66 0.33 1.32 0.66 2 1 C-1.23865138 5.85797707 -6.78073905 8.28288899 -12.4375 9.54296875 C-14.28395125 9.77047792 -16.14244974 9.89680276 -18 10 C-14.56861368 7.20661013 -10.81217239 5.22264513 -6.875 3.25 C-5.92560547 2.75693359 -5.92560547 2.75693359 -4.95703125 2.25390625 C-3.33560094 1.43802731 -1.66987872 0.71147715 0 0 Z " fill="#20A55E" transform="translate(190,176)"/>
<path d="M0 0 C-2.33923527 2.68211992 -4.49253938 3.77605138 -7.8125 5 C-10.81717008 6.14045872 -13.61755552 7.30877776 -16.5 8.75 C-19 10 -19 10 -21 10 C-21 9.34 -21 8.68 -21 8 C-18.0707161 6.46293927 -15.13042886 4.94824838 -12.1875 3.4375 C-11.35412109 2.99986328 -10.52074219 2.56222656 -9.66210938 2.11132812 C-8.45844727 1.49741211 -8.45844727 1.49741211 -7.23046875 0.87109375 C-6.49207764 0.48880615 -5.75368652 0.10651855 -4.99291992 -0.28735352 C-3 -1 -3 -1 0 0 Z " fill="#29A560" transform="translate(216,166)"/>
<path d="M0 0 C1 3 1 3 0.37915039 4.80932617 C0.03875732 5.46392822 -0.30163574 6.11853027 -0.65234375 6.79296875 C-1.01650391 7.50517578 -1.38066406 8.21738281 -1.75585938 8.95117188 C-2.14580078 9.68916016 -2.53574219 10.42714844 -2.9375 11.1875 C-3.51661133 12.31188477 -3.51661133 12.31188477 -4.10742188 13.45898438 C-5.06271757 15.31060689 -6.03021577 17.15592452 -7 19 C-7.33 19 -7.66 19 -8 19 C-7.67 15.7 -7.34 12.4 -7 9 C-5.68 8.67 -4.36 8.34 -3 8 C-3.061875 7.236875 -3.12375 6.47375 -3.1875 5.6875 C-3 3 -3 3 -1.5 1.1875 C-1.005 0.795625 -0.51 0.40375 0 0 Z " fill="#178949" transform="translate(402,327)"/>
<path d="M0 0 C0.99 0 1.98 0 3 0 C3.33 0.99 3.66 1.98 4 3 C4.804375 3.61875 4.804375 3.61875 5.625 4.25 C7 6 7 6 6.6875 9.6875 C6.460625 10.780625 6.23375 11.87375 6 13 C5.67 12.34 5.34 11.68 5 11 C4.01 11 3.02 11 2 11 C1.34 7.37 0.68 3.74 0 0 Z " fill="#0DBB5D" transform="translate(9,313)"/>
<path d="M0 0 C1.43931117 0.45261358 2.87638999 0.91232979 4.3125 1.375 C5.11300781 1.63023438 5.91351563 1.88546875 6.73828125 2.1484375 C9 3 9 3 12 5 C12 5.66 12 6.32 12 7 C8.37471432 7.20140476 6.13498292 6.85776765 3 5 C2.34 5.66 1.68 6.32 1 7 C0.67 4.69 0.34 2.38 0 0 Z " fill="#059C3F" transform="translate(344,24)"/>
<path d="M0 0 C0.33 0.66 0.66 1.32 1 2 C0.3190918 3.77172852 0.3190918 3.77172852 -0.80078125 5.87890625 C-1.20103516 6.63494141 -1.60128906 7.39097656 -2.01367188 8.16992188 C-2.44228516 8.95947266 -2.87089844 9.74902344 -3.3125 10.5625 C-3.72951172 11.35591797 -4.14652344 12.14933594 -4.57617188 12.96679688 C-7.73587828 18.86793914 -7.73587828 18.86793914 -10 20 C-9.39009109 16.44219804 -8.4216319 13.3171411 -7 10 C-6.34 10 -5.68 10 -5 10 C-5 9.01 -5 8.02 -5 7 C-4.34 7 -3.68 7 -3 7 C-2.690625 6.030625 -2.38125 5.06125 -2.0625 4.0625 C-1 1 -1 1 0 0 Z " fill="#199350" transform="translate(232,241)"/>
<path d="M0 0 C-1.73636719 0.81404297 -1.73636719 0.81404297 -3.5078125 1.64453125 C-5.04689333 2.36714847 -6.5859548 3.0898069 -8.125 3.8125 C-8.88554687 4.16892578 -9.64609375 4.52535156 -10.4296875 4.89257812 C-14.64827998 6.87458925 -18.84129128 8.89407242 -23 11 C-21.76945351 7.30836054 -20.15432301 6.69257388 -16.83203125 4.90625 C-14.60054559 3.80240208 -12.3230757 2.89349066 -10 2 C-8.989375 1.443125 -7.97875 0.88625 -6.9375 0.3125 C-3.75087167 -1.11131266 -3.14502434 -1.00776049 0 0 Z " fill="#11B257" transform="translate(158,172)"/>
<path d="M0 0 C1.65 0 3.3 0 5 0 C5.125 6.625 5.125 6.625 4 10 C3.01 9.67 2.02 9.34 1 9 C0.67 6.03 0.34 3.06 0 0 Z " fill="#0BA548" transform="translate(215,257)"/>
<path d="M0 0 C0 0.99 0 1.98 0 3 C0.144375 3.94875 0.28875 4.8975 0.4375 5.875 C0 9 0 9 -1.55859375 10.5 C-3.31851414 11.74646273 -5.15655225 12.88076387 -7 14 C-6.67 11.03 -6.34 8.06 -6 5 C-5.01 5 -4.02 5 -3 5 C-1.28288757 2.55503957 -1.28288757 2.55503957 0 0 Z " fill="#0ABA55" transform="translate(24,68)"/>
<path d="M0 0 C1.98 0.99 1.98 0.99 4 2 C3.6596875 2.9590625 3.6596875 2.9590625 3.3125 3.9375 C2.91986055 7.78536657 3.95035917 10.34489002 5.30859375 13.9140625 C6 16 6 16 6 19 C5.01 18.67 4.02 18.34 3 18 C2 12 1 6 0 0 Z " fill="#12B057" transform="translate(209,233)"/>
<path d="M0 0 C0.66 0.33 1.32 0.66 2 1 C1.38125 1.2475 0.7625 1.495 0.125 1.75 C-2.12830934 2.80450179 -2.12830934 2.80450179 -2.8828125 4.90234375 C-4.23321159 7.4378833 -5.56311247 8.32976144 -8 9.8125 C-8.70125 10.25207031 -9.4025 10.69164062 -10.125 11.14453125 C-10.74375 11.42683594 -11.3625 11.70914063 -12 12 C-12.66 11.67 -13.32 11.34 -14 11 C-12.23055495 9.53998252 -10.45939429 8.08204407 -8.6875 6.625 C-7.70136719 5.81289063 -6.71523438 5.00078125 -5.69921875 4.1640625 C-3 2 -3 2 0 0 Z " fill="#22AA62" transform="translate(63,25)"/>
<path d="M0 0 C1 3 1 3 0.22265625 4.82421875 C-0.8515625 6.54947917 -1.92578125 8.27473958 -3 10 C-3.66 10 -4.32 10 -5 10 C-5.33 10.99 -5.66 11.98 -6 13 C-6.73080266 11.02253397 -7.39421747 9.01927511 -8 7 C-7.67 6.34 -7.34 5.68 -7 5 C-5.35 5 -3.7 5 -2 5 C-1.34 3.35 -0.68 1.7 0 0 Z " fill="#07B14D" transform="translate(232,238)"/>
<path d="M0 0 C0.99 0.66 1.98 1.32 3 2 C-1.75 5 -1.75 5 -4 5 C-4.33 5.99 -4.66 6.98 -5 8 C-8.0625 9.1875 -8.0625 9.1875 -11 10 C-11 9.01 -11 8.02 -11 7 C-9.54462432 6.16151196 -8.08559627 5.32936066 -6.625 4.5 C-5.81289062 4.0359375 -5.00078125 3.571875 -4.1640625 3.09375 C-2 2 -2 2 0 2 C0 1.34 0 0.68 0 0 Z " fill="#13A751" transform="translate(219,139)"/>
<path d="M0 0 C4.42966583 1.20809068 7.06388828 2.43472148 10 6 C11.25 8.25 11.25 8.25 12 10 C8.78727751 8.56006357 6.3793336 6.76981628 3.75 4.4375 C3.04359375 3.81746094 2.3371875 3.19742187 1.609375 2.55859375 C1.07828125 2.04425781 0.5471875 1.52992188 0 1 C0 0.67 0 0.34 0 0 Z " fill="#1DA05A" transform="translate(42,373)"/>
<path d="M0 0 C0 3.19610552 -0.54671542 4.41717626 -2 7.1875 C-2.37125 7.90292969 -2.7425 8.61835938 -3.125 9.35546875 C-3.41375 9.89816406 -3.7025 10.44085938 -4 11 C-4.99 11 -5.98 11 -7 11 C-7.33 10.01 -7.66 9.02 -8 8 C-7.01 8 -6.02 8 -5 8 C-4.54625 6.865625 -4.0925 5.73125 -3.625 4.5625 C-2 1 -2 1 0 0 Z " fill="#2B9759" transform="translate(223,260)"/>
<path d="M0 0 C0 2 0 2 -1 3.625 C-4.20085893 5.82559052 -7.17893517 5.18792122 -11 5 C-7.8797251 0.39387991 -5.45124506 -0.14733095 0 0 Z " fill="#1AAA58" transform="translate(276,137)"/>
<path d="M0 0 C1.76462683 3.08809695 2 4.23312136 2 8 C0.125 10.5625 0.125 10.5625 -2 13 C-2.66 13.99 -3.32 14.98 -4 16 C-3.27275406 10.47293087 -1.66554027 5.30039859 0 0 Z " fill="#0BC059" transform="translate(13,89)"/>
<path d="M0 0 C1.58323688 -0.027193 3.16661062 -0.04648306 4.75 -0.0625 C6.07257813 -0.07990234 6.07257813 -0.07990234 7.421875 -0.09765625 C9.83102137 -0.00640071 11.7569138 0.11590071 14 1 C14.33 1.99 14.66 2.98 15 4 C9.41532676 4.33846504 4.65285818 3.10190545 0 0 Z " fill="#14AC57" transform="translate(130,217)"/>
<path d="M0 0 C2.79872437 2.52788007 4.45773019 4.20411134 5 8 C3.68 8 2.36 8 1 8 C-1 5 -1 5 -0.625 2.3125 C-0.41875 1.549375 -0.2125 0.78625 0 0 Z " fill="#0AB754" transform="translate(106,206)"/>
<path d="M0 0 C0.8353125 0.7734375 0.8353125 0.7734375 1.6875 1.5625 C1.6875 2.2225 1.6875 2.8825 1.6875 3.5625 C0.10281323 3.10886829 -1.48019924 2.64938548 -3.0625 2.1875 C-3.94421875 1.93226563 -4.8259375 1.67703125 -5.734375 1.4140625 C-8.07330572 0.6415066 -10.14692562 -0.27375676 -12.3125 -1.4375 C-7.55185353 -2.66166624 -4.23689018 -2.63374254 0 0 Z " fill="#16B057" transform="translate(203.3125,211.4375)"/>
<path d="M0 0 C1 3 1 3 0.375 5.3125 C-1.35251833 8.68901309 -3.48959474 11.15927826 -6 14 C-6.33 13.34 -6.66 12.68 -7 12 C-6.0625 9.875 -6.0625 9.875 -5 8 C-4.34 8 -3.68 8 -3 8 C-3.061875 7.236875 -3.12375 6.47375 -3.1875 5.6875 C-3 3 -3 3 -1.5 1.1875 C-1.005 0.795625 -0.51 0.40375 0 0 Z " fill="#10A14B" transform="translate(311,122)"/>
<path d="M0 0 C0.33 0.99 0.66 1.98 1 3 C-0.1446875 4.0828125 -0.1446875 4.0828125 -1.3125 5.1875 C-4.03795952 7.82671962 -4.03795952 7.82671962 -5.625 10.75 C-7 13 -7 13 -10 14 C-8.62815653 9.93501119 -6.77931541 7.32603439 -3.875 4.1875 C-3.15054687 3.39730469 -2.42609375 2.60710938 -1.6796875 1.79296875 C-1.12539063 1.20128906 -0.57109375 0.60960937 0 0 Z " fill="#27AF67" transform="translate(35,50)"/>
<path d="M0 0 C0.66 0.33 1.32 0.66 2 1 C2 1.99 2 2.98 2 4 C1.34 4 0.68 4 0 4 C0 4.66 0 5.32 0 6 C0.66 6.33 1.32 6.66 2 7 C1.071875 7.12375 1.071875 7.12375 0.125 7.25 C-2.18437567 7.81258459 -2.18437567 7.81258459 -3.25 10.0625 C-3.4975 10.701875 -3.745 11.34125 -4 12 C-4 8.76344816 -3.3449153 7.21247361 -2 4.3125 C-1.62875 3.50425781 -1.2575 2.69601563 -0.875 1.86328125 C-0.58625 1.24839844 -0.2975 0.63351563 0 0 Z " fill="#05A044" transform="translate(294,158)"/>
<path d="M0 0 C0.625 1.8125 0.625 1.8125 1 4 C0.01 5.485 0.01 5.485 -1 7 C-1.309375 8.010625 -1.61875 9.02125 -1.9375 10.0625 C-3 13 -3 13 -6 15 C-4.36041242 9.76727367 -2.61047965 4.84803364 0 0 Z " fill="#0AA64C" transform="translate(270,208)"/>
<path d="M0 0 C0.66 0.33 1.32 0.66 2 1 C0.02 4.96 -1.96 8.92 -4 13 C-5.60600892 9.78798216 -4.05786315 7.29112979 -3 4 C-2.67 3.34 -2.34 2.68 -2 2 C-1.34 2 -0.68 2 0 2 C0 1.34 0 0.68 0 0 Z " fill="#1F9750" transform="translate(275,150)"/>
<path d="M0 0 C1.77226453 0.28284018 3.542788 0.57660498 5.3125 0.875 C6.29863281 1.03742187 7.28476562 1.19984375 8.30078125 1.3671875 C11 2 11 2 14 4 C5.42857143 4.14285714 5.42857143 4.14285714 2 3 C2 2.34 2 1.68 2 1 C1.34 0.67 0.68 0.34 0 0 Z " fill="#279053" transform="translate(304,6)"/>
<path d="M0 0 C0.66 0.66 1.32 1.32 2 2 C1.01 2 0.02 2 -1 2 C-1 2.66 -1 3.32 -1 4 C-5.43076923 6.09230769 -5.43076923 6.09230769 -8.3125 5.625 C-8.869375 5.41875 -9.42625 5.2125 -10 5 C-3.23076923 0.23076923 -3.23076923 0.23076923 0 0 Z " fill="#0F9E49" transform="translate(336,395)"/>
<path d="M0 0 C1.98 0.495 1.98 0.495 4 1 C4 2.98 4 4.96 4 7 C3.01 7.33 2.02 7.66 1 8 C0.17361624 5.10765685 0 3.11257569 0 0 Z " fill="#0A9743" transform="translate(402,313)"/>
<path d="M0 0 C0.33 0 0.66 0 1 0 C1.44534366 6.95230941 1.67289916 11.59696035 -3 17 C-3.33 16.34 -3.66 15.68 -4 15 C-3.273668 13.05210965 -2.54222449 11.1057502 -1.76953125 9.17578125 C-0.68946455 6.1219886 -0.3348953 3.21499489 0 0 Z " fill="#1FA458" transform="translate(313,108)"/>
<path d="M0 0 C-1.65 0.33 -3.3 0.66 -5 1 C-5.33 1.99 -5.66 2.98 -6 4 C-6.99 4.33 -7.98 4.66 -9 5 C-9.66 4.34 -10.32 3.68 -11 3 C-11 2.34 -11 1.68 -11 1 C-9.5437328 0.63743142 -8.08488815 0.28520207 -6.625 -0.0625 C-5.40683594 -0.35833984 -5.40683594 -0.35833984 -4.1640625 -0.66015625 C-2 -1 -2 -1 0 0 Z " fill="#07BD55" transform="translate(111,9)"/>
<path d="M0 0 C1.12588014 0.95729916 2.2506715 1.91587895 3.375 2.875 C4.00148438 3.40867187 4.62796875 3.94234375 5.2734375 4.4921875 C6.55836651 5.61432007 7.79371975 6.79371975 9 8 C8.625 10.125 8.625 10.125 8 12 C6.66081194 10.37982158 5.3288031 8.75370657 4 7.125 C3.2575 6.22007812 2.515 5.31515625 1.75 4.3828125 C0 2 0 2 0 0 Z " fill="#1D995A" transform="translate(27,355)"/>
<path d="M0 0 C-0.33 1.65 -0.66 3.3 -1 5 C-1.33 3.68 -1.66 2.36 -2 1 C-5.96 2.98 -5.96 2.98 -10 5 C-10.33 4.34 -10.66 3.68 -11 3 C-9.73581754 2.30034557 -8.46334598 1.61565237 -7.1875 0.9375 C-6.47980469 0.55464844 -5.77210938 0.17179688 -5.04296875 -0.22265625 C-3 -1 -3 -1 0 0 Z " fill="#32975F" transform="translate(284,133)"/>
<path d="M0 0 C1.21236328 0.01353516 1.21236328 0.01353516 2.44921875 0.02734375 C3.37154297 0.04474609 3.37154297 0.04474609 4.3125 0.0625 C4.3125 0.7225 4.3125 1.3825 4.3125 2.0625 C2.85513913 2.25741452 1.39655407 2.44319358 -0.0625 2.625 C-0.87460937 2.72941406 -1.68671875 2.83382813 -2.5234375 2.94140625 C-4.6875 3.0625 -4.6875 3.0625 -6.6875 2.0625 C-6.6875 2.7225 -6.6875 3.3825 -6.6875 4.0625 C-7.3475 4.0625 -8.0075 4.0625 -8.6875 4.0625 C-8.3575 3.0725 -8.0275 2.0825 -7.6875 1.0625 C-4.80538698 0.10179566 -2.98899956 -0.04331883 0 0 Z " fill="#0AA045" transform="translate(320.6875,400.9375)"/>
<path d="M0 0 C0.33 0 0.66 0 1 0 C1.02721176 1.89575251 1.04649136 3.79161979 1.0625 5.6875 C1.07410156 6.74324219 1.08570313 7.79898438 1.09765625 8.88671875 C1.00865425 11.72410262 0.64939838 14.2438919 0 17 C-2.26316991 13.60524513 -2.17045826 12.93198488 -1.6875 9.0625 C-1.58824219 8.20785156 -1.48898438 7.35320312 -1.38671875 6.47265625 C-1.04159973 4.26598618 -0.58470623 2.15391782 0 0 Z " fill="#25A660" transform="translate(6,105)"/>
<path d="M0 0 C0.66 0.33 1.32 0.66 2 1 C2 1.66 2 2.32 2 3 C2.66 3.33 3.32 3.66 4 4 C0.7 4.33 -2.6 4.66 -6 5 C-6 4.34 -6 3.68 -6 3 C-4.35 3 -2.7 3 -1 3 C-0.67 2.01 -0.34 1.02 0 0 Z " fill="#0EA54C" transform="translate(302,98)"/>
<path d="M0 0 C0.65234375 1.765625 0.65234375 1.765625 1 4 C0.00390625 5.921875 0.00390625 5.921875 -1.4375 7.75 C-2.14712891 8.67039062 -2.14712891 8.67039062 -2.87109375 9.609375 C-3.24363281 10.06828125 -3.61617187 10.5271875 -4 11 C-5 8 -5 8 -4.00390625 5.95703125 C-3.52824219 5.24933594 -3.05257813 4.54164062 -2.5625 3.8125 C-2.08941406 3.09707031 -1.61632812 2.38164063 -1.12890625 1.64453125 C-0.75636719 1.10183594 -0.38382813 0.55914062 0 0 Z " fill="#26B169" transform="translate(24,64)"/>
<path d="M0 0 C0 1.32 0 2.64 0 4 C-0.66 4 -1.32 4 -2 4 C-2.33 4.99 -2.66 5.98 -3 7 C-3.99 7.66 -4.98 8.32 -6 9 C-5.66666667 7.66666667 -5.33333333 6.33333333 -5 5 C-4.855625 4.278125 -4.71125 3.55625 -4.5625 2.8125 C-4.376875 2.214375 -4.19125 1.61625 -4 1 C-2 0 -2 0 0 0 Z " fill="#0AAC50" transform="translate(230,297)"/>
<path d="M0 0 C1.5 1.375 1.5 1.375 3 3 C5.10332891 3.71447643 5.10332891 3.71447643 7 4 C6.67 4.66 6.34 5.32 6 6 C5.34 5.67 4.68 5.34 4 5 C4 5.66 4 6.32 4 7 C2.68 6.34 1.36 5.68 0 5 C0 4.34 0 3.68 0 3 C-1.32 2.34 -2.64 1.68 -4 1 C-2.1875 0.3125 -2.1875 0.3125 0 0 Z " fill="#10A445" transform="translate(318,9)"/>
<path d="M0 0 C0.66 0 1.32 0 2 0 C3.10844919 3.32534757 2.84454356 5.62182575 2 9 C1.67 8.34 1.34 7.68 1 7 C0.34 7 -0.32 7 -1 7 C-1.04254356 5.00045254 -1.04080783 2.99958364 -1 1 C-0.67 0.67 -0.34 0.34 0 0 Z " fill="#05BD55" transform="translate(13,317)"/>
<path d="M0 0 C1.98 0.66 3.96 1.32 6 2 C3.01353231 3.99097846 0.40312738 4.94124926 -3 6 C-2 3 -2 3 0 1 C0 0.67 0 0.34 0 0 Z " fill="#1A9B52" transform="translate(202,147)"/>
<path d="M0 0 C0.66 0.33 1.32 0.66 2 1 C1.75 3.8125 1.75 3.8125 1 7 C-0.32 7.99 -1.64 8.98 -3 10 C-2.01 6.7 -1.02 3.4 0 0 Z " fill="#06A347" transform="translate(302,141)"/>
<path d="M0 0 C1.125 1.75 1.125 1.75 2 4 C1.125 6.25 1.125 6.25 0 8 C-1.32 7.67 -2.64 7.34 -4 7 C-2.79266543 4.58533087 -1.39745961 2.30884631 0 0 Z " fill="#079C40" transform="translate(389,64)"/>
<path d="M0 0 C0.33 0.99 0.66 1.98 1 3 C1.99 3.33 2.98 3.66 4 4 C3.67 4.66 3.34 5.32 3 6 C1.35 5.67 -0.3 5.34 -2 5 C-1.125 1.125 -1.125 1.125 0 0 Z " fill="#06BC56" transform="translate(44,368)"/>
<path d="M0 0 C0.66 0.33 1.32 0.66 2 1 C0.375 7.75 0.375 7.75 -3 10 C-2.39009109 6.44219804 -1.4216319 3.3171411 0 0 Z " fill="#1BA659" transform="translate(225,251)"/>
<path d="M0 0 C1.32 0.33 2.64 0.66 4 1 C4 1.99 4 2.98 4 4 C-2.15234375 3.4140625 -2.15234375 3.4140625 -4 3 C-4.33 2.34 -4.66 1.68 -5 1 C-3.35 1 -1.7 1 0 1 C0 0.67 0 0.34 0 0 Z " fill="#10B557" transform="translate(160,200)"/>
<path d="M0 0 C0.33 0.66 0.66 1.32 1 2 C1.763125 1.79375 2.52625 1.5875 3.3125 1.375 C6 1 6 1 9 3 C8.09507813 3.09087891 8.09507813 3.09087891 7.171875 3.18359375 C5.97304687 3.30927734 5.97304687 3.30927734 4.75 3.4375 C3.96109375 3.51871094 3.1721875 3.59992187 2.359375 3.68359375 C0.17635361 3.97634993 -1.8773182 4.42064419 -4 5 C-2.68 3.35 -1.36 1.7 0 0 Z " fill="#0FBB56" transform="translate(90,11)"/>
<path d="M0 0 C0.66 0.33 1.32 0.66 2 1 C1.34 1.66 0.68 2.32 0 3 C-0.99 3 -1.98 3 -3 3 C-3.33 3.99 -3.66 4.98 -4 6 C-5.32 5.34 -6.64 4.68 -8 4 C-6.71349294 3.30289269 -5.42059335 2.61757124 -4.125 1.9375 C-3.40570313 1.55464844 -2.68640625 1.17179688 -1.9453125 0.77734375 C-1.30335938 0.52082031 -0.66140625 0.26429688 0 0 Z " fill="#279F5F" transform="translate(223,160)"/>
<path d="M0 0 C2.4375 0.8125 2.4375 0.8125 5 2 C5.33 2.99 5.66 3.98 6 5 C4.35 5 2.7 5 1 5 C0.67 3.35 0.34 1.7 0 0 Z " fill="#0B9947" transform="translate(350,26)"/>
<path d="M0 0 C1.5 1.375 1.5 1.375 3 3 C3 3.66 3 4.32 3 5 C0.03 4.505 0.03 4.505 -3 4 C-3 3.34 -3 2.68 -3 2 C-2.01 2 -1.02 2 0 2 C0 1.34 0 0.68 0 0 Z " fill="#06A242" transform="translate(348,384)"/>
<path d="M0 0 C0.33 1.65 0.66 3.3 1 5 C-1.97 4.505 -1.97 4.505 -5 4 C-4.67 3.01 -4.34 2.02 -4 1 C-2 0 -2 0 0 0 Z " fill="#15B354" transform="translate(282,134)"/>
<path d="M0 0 C0.33 0 0.66 0 1 0 C1.33 2.31 1.66 4.62 2 7 C1.01 7.66 0.02 8.32 -1 9 C-1.625 5.625 -1.625 5.625 -2 2 C-1.34 1.34 -0.68 0.68 0 0 Z " fill="#11B359" transform="translate(6,117)"/>
<path d="M0 0 C3.16605307 2.11070205 4.19587357 3.73539027 6 7 C4.125 6.6875 4.125 6.6875 2 6 C0 3 0 3 0 0 Z " fill="#0DBD5B" transform="translate(17,335)"/>
<path d="M0 0 C1 3 1 3 0.22265625 4.82421875 C-0.8515625 6.54947917 -1.92578125 8.27473958 -3 10 C-3.66 8.68 -4.32 7.36 -5 6 C-4.01 5.67 -3.02 5.34 -2 5 C-0.78130071 2.49552484 -0.78130071 2.49552484 0 0 Z " fill="#12B057" transform="translate(232,238)"/>
<path d="M0 0 C0.33 0 0.66 0 1 0 C0.67 2.31 0.34 4.62 0 7 C-0.99 6.67 -1.98 6.34 -3 6 C-1.125 1.125 -1.125 1.125 0 0 Z " fill="#15A254" transform="translate(242,217)"/>
<path d="M0 0 C0.33 0.66 0.66 1.32 1 2 C1.66 2.33 2.32 2.66 3 3 C1.35 3.33 -0.3 3.66 -2 4 C-2.33 4.99 -2.66 5.98 -3 7 C-3.33 6.34 -3.66 5.68 -4 5 C-2.68 3.35 -1.36 1.7 0 0 Z " fill="#16B04F" transform="translate(194,174)"/>
</svg>
